<svg width="1440" height="1024" viewBox="0 0 1440 1024" fill="none" xmlns="http://www.w3.org/2000/svg">
<g clip-path="url(#clip0_2_2)">
<rect width="1440" height="1024" fill="#F8F7F9"/>
<path opacity="0.1" d="M241.056 728.821C180.682 708.473 128.292 657.958 117.71 595.26C107.129 532.563 146.632 461.862 208.889 448.253C238.329 441.773 270.107 447.572 298.217 436.75C351.288 416.402 369.303 347.515 418.316 318.775C465.544 291.104 530.268 311.063 565.454 352.959C600.64 394.855 610.897 452.66 608.723 507.289C605.477 587.516 571.394 674.062 498.361 708.181C436.915 736.76 307.013 744.86 241.088 728.983" fill="url(#paint0_linear_2_2)"/>
<path d="M394.883 477.497C463.681 477.497 519.452 421.725 519.452 352.927C519.452 284.129 463.681 228.358 394.883 228.358C326.085 228.358 270.313 284.129 270.313 352.927C270.313 421.725 326.085 477.497 394.883 477.497Z" fill="#DDD2F3"/>
<path d="M406.843 232.773C410.614 231.532 414.636 231.26 418.54 231.984C420.492 232.355 422.345 233.129 423.982 234.257C425.618 235.385 427.001 236.841 428.043 238.534C429.89 242.699 430.499 247.308 429.798 251.809C429.096 263.155 428.404 274.491 427.721 285.818C427.295 288.951 427.585 292.14 428.569 295.146C429.107 296.629 430.123 297.89 431.458 298.732C432.792 299.574 434.368 299.948 435.938 299.795C437.459 299.282 438.928 298.626 440.325 297.836C441.035 297.459 441.848 297.32 442.644 297.441C443.439 297.562 444.174 297.937 444.74 298.508C445.27 299.385 445.437 300.434 445.208 301.433C444.964 303.53 444.227 305.54 443.058 307.298C441.89 309.056 440.322 310.513 438.482 311.55C439.045 311.372 439.643 311.328 440.226 311.422C440.809 311.516 441.361 311.746 441.839 312.094C442.317 312.441 442.707 312.895 442.977 313.42C443.248 313.946 443.391 314.527 443.395 315.118C443.304 316.318 442.866 317.466 442.134 318.421C441.402 319.377 440.407 320.098 439.272 320.498C436.968 321.224 434.546 321.502 432.137 321.317C432.626 321.368 433.1 321.515 433.531 321.751C433.963 321.986 434.343 322.305 434.65 322.688C434.958 323.072 435.186 323.512 435.322 323.985C435.457 324.457 435.498 324.952 435.441 325.44C435.282 326.419 434.869 327.34 434.243 328.109C433.617 328.879 432.8 329.471 431.874 329.826C430.002 330.498 427.996 330.709 426.025 330.44C421.786 330.157 417.721 328.642 414.329 326.083C408.48 321.522 406.229 313.714 406.141 306.374C406.514 299.014 407.442 291.693 408.919 284.472C411.288 267.571 409.358 250.377 407.398 233.387L408.831 232.978" fill="#E3707F"/>
<path d="M429.417 485.655C424.826 490.071 423.072 496.942 427.458 502.235C429.555 504.683 432.494 506.255 435.695 506.639C438.895 507.023 442.123 506.193 444.74 504.311C457.168 494.691 444.214 477 430.762 480.655C430.249 480.804 429.806 481.133 429.515 481.582C429.224 482.031 429.105 482.57 429.18 483.1C429.255 483.629 429.518 484.114 429.921 484.466C430.325 484.817 430.841 485.011 431.376 485.012C435.374 484.756 439.342 485.859 442.635 488.141C444.2 489.573 445.146 491.559 445.272 493.677C445.397 495.795 444.692 497.879 443.307 499.486C435.997 508.493 423.277 495.246 430.967 487.205C431.12 486.991 431.191 486.73 431.17 486.468C431.148 486.206 431.034 485.96 430.848 485.774C430.662 485.588 430.416 485.474 430.154 485.453C429.892 485.431 429.631 485.502 429.417 485.655Z" fill="#8AA9FC"/>
<path d="M287.273 436.704C285.341 435.121 283.792 433.122 282.741 430.856C281.016 425.944 284.32 423.516 288.209 421.674C290.176 421.017 291.96 419.903 293.413 418.424C294.867 416.945 295.949 415.143 296.572 413.165C298.415 406.147 292.449 397.491 284.876 399.568C282.419 400.24 283.15 403.398 284.876 404.363C287.215 405.738 290.402 406.527 290.724 409.773C291.25 414.101 286.981 415.358 283.969 416.937C282.368 417.708 280.943 418.802 279.786 420.151C278.628 421.5 277.763 423.074 277.244 424.774C275.489 430.915 279.144 439.219 286.309 438.868C286.56 438.841 286.799 438.748 287.003 438.598C287.206 438.449 287.366 438.248 287.467 438.016C287.568 437.785 287.606 437.531 287.577 437.28C287.548 437.029 287.454 436.79 287.303 436.588L287.273 436.704Z" fill="#6E3281"/>
<path d="M263.763 511.856C264.377 515.92 268.588 524.517 273.033 525.716C275.401 526.33 277.156 524.78 278.881 523.523C282.215 521.213 285.519 518.844 288.823 516.505C289.459 516.111 289.919 515.488 290.11 514.764C290.3 514.041 290.206 513.272 289.847 512.616L281.074 499.135C280.68 498.5 280.057 498.039 279.334 497.849C278.61 497.659 277.841 497.753 277.185 498.112C273.395 500.542 269.762 503.208 266.307 506.095C264.056 508.171 266.921 511.592 269.495 510.218C273.169 508.057 276.696 505.654 280.051 503.025L276.191 502.001L284.964 515.482C285.285 514.195 285.636 512.908 285.958 511.592C283.999 513.025 282.01 514.517 280.109 515.832C278.998 516.651 275.226 520.16 273.998 520.014C272.77 519.868 270.547 515.92 269.846 515.101C268.553 513.404 267.027 511.898 265.313 510.627C264.436 510.013 263.588 511.008 263.734 511.856H263.763Z" fill="#EDC483"/>
<path d="M465.531 327.107C466.145 331.171 470.385 339.768 474.83 340.967C477.198 341.581 478.953 340.032 480.678 338.774C484.011 336.464 487.316 334.125 490.62 331.756C491.256 331.362 491.716 330.739 491.907 330.015C492.097 329.292 492.003 328.523 491.644 327.867L482.871 314.387C482.477 313.751 481.854 313.291 481.13 313.1C480.407 312.91 479.638 313.004 478.982 313.363C475.189 315.788 471.555 318.455 468.104 321.346C465.823 323.422 468.718 326.844 471.291 325.469C475.001 323.261 478.565 320.819 481.965 318.159L478.075 317.135L486.848 330.616C487.199 329.329 487.52 328.042 487.871 326.756L482.023 330.967C480.912 331.785 477.169 335.294 475.912 335.148C474.654 335.002 472.461 331.054 471.788 330.236C470.496 328.538 468.97 327.032 467.256 325.762C466.379 325.148 465.531 326.142 465.648 326.99L465.531 327.107Z" fill="#EDC483"/>
<path d="M482.871 400.386C475.297 403.925 467.812 407.667 460.355 411.498C459.954 411.659 459.602 411.921 459.332 412.257C459.061 412.594 458.882 412.995 458.812 413.421C458.741 413.847 458.782 414.284 458.929 414.69C459.076 415.096 459.326 415.457 459.653 415.738C465.121 421.382 470.531 427.055 476.409 432.289C476.683 432.507 477.004 432.66 477.346 432.736C477.688 432.812 478.043 432.809 478.384 432.727C478.725 432.645 479.043 432.487 479.314 432.264C479.585 432.041 479.801 431.76 479.947 431.441C483.602 423.487 489.129 412.639 487.608 403.603C487.228 401.293 483.719 400.269 482.783 402.813C481.717 406.979 480.917 411.208 480.385 415.475C479.372 420.333 477.812 425.062 475.736 429.57L479.596 429.277C474.245 423.224 468.455 417.58 462.665 411.995C462.665 413.311 462.665 414.627 462.665 415.943C469.975 411.82 477.286 407.668 484.362 403.281C484.648 403.044 484.843 402.716 484.915 402.351C484.986 401.987 484.929 401.609 484.753 401.282C484.578 400.955 484.294 400.699 483.951 400.557C483.608 400.415 483.226 400.396 482.871 400.503V400.386Z" fill="#E3707F"/>
<path d="M342.16 505.305C347.882 499.11 353.04 492.417 357.571 485.304C358.916 483.082 355.553 480.538 353.857 482.555C348.512 489.085 343.765 496.082 339.675 503.463C339.521 503.793 339.486 504.166 339.576 504.518C339.665 504.871 339.874 505.182 340.166 505.398C340.458 505.615 340.816 505.724 341.18 505.707C341.543 505.69 341.89 505.548 342.16 505.305Z" fill="#E3707F"/>
<path d="M526.704 287.016L526.266 286.636C525.839 286.145 525.315 285.746 524.728 285.466C524.14 285.186 523.501 285.03 522.85 285.008C522.2 284.986 521.551 285.098 520.946 285.337C520.341 285.577 519.791 285.939 519.332 286.4C518.872 286.861 518.513 287.412 518.276 288.019C518.039 288.625 517.93 289.274 517.955 289.924C517.98 290.575 518.139 291.213 518.422 291.8C518.704 292.386 519.105 292.908 519.598 293.333L519.949 293.742C520.392 294.187 520.919 294.54 521.498 294.78C522.078 295.021 522.699 295.145 523.327 295.145C523.954 295.145 524.576 295.021 525.155 294.78C525.735 294.54 526.261 294.187 526.704 293.742C527.579 292.841 528.069 291.635 528.069 290.379C528.069 289.123 527.579 287.917 526.704 287.016Z" fill="#251A51"/>
<path d="M310.199 464.689L309.79 464.309C309.355 463.847 308.832 463.477 308.252 463.222C307.672 462.966 307.046 462.829 306.412 462.82C305.778 462.81 305.149 462.928 304.561 463.167C303.974 463.405 303.44 463.759 302.992 464.207C302.543 464.655 302.19 465.189 301.951 465.777C301.713 466.364 301.595 466.993 301.605 467.627C301.614 468.261 301.751 468.887 302.007 469.467C302.262 470.047 302.632 470.57 303.093 471.005L303.474 471.414C304.384 472.21 305.562 472.63 306.77 472.59C307.979 472.549 309.126 472.051 309.981 471.196C310.836 470.342 311.334 469.194 311.375 467.986C311.415 466.777 310.995 465.599 310.199 464.689Z" fill="#251A51"/>
<path d="M373.274 314.094L290.666 345.09L298.532 311.726L277.039 306.257C277.039 306.257 253.938 371.496 269.992 373.221C298.093 376.145 340.611 365.15 340.611 365.15L373.274 314.094Z" fill="#F6AEA6"/>
<path d="M344.587 388.924L344.792 454.279C366.314 480.596 441.289 446.53 441.289 446.53L442.137 419.803L443.892 356.114C442.167 330.762 418.627 318.334 418.627 318.334C406.682 313.05 393.656 310.665 380.613 311.375C366.635 312.077 363.068 318.773 357.424 331.493C352.804 341.786 344.587 351.465 344.587 388.924Z" fill="#251A51"/>
<path d="M415.265 249.821L414.27 262.892C414.27 262.892 425.382 264.383 422.224 274.589C419.066 284.794 411.434 280.437 411.434 280.437C411.434 280.437 409.533 306.404 382.923 298.158C361.752 291.607 363.068 264.179 365.759 240.815C366.004 238.672 366.692 236.603 367.777 234.739C368.861 232.875 370.321 231.256 372.063 229.984C373.804 228.712 375.791 227.815 377.897 227.349C380.002 226.883 382.182 226.858 384.298 227.276L400.293 230.405C404.722 231.269 408.684 233.717 411.439 237.29C414.194 240.864 415.554 245.318 415.265 249.821Z" fill="#F6AEA6"/>
<path d="M414.241 273.741L407.077 311.96C406.694 313.999 405.901 315.94 404.745 317.663C403.588 319.387 402.093 320.857 400.351 321.984C398.608 323.111 396.654 323.872 394.608 324.219C392.562 324.567 390.467 324.495 388.45 324.007C384.621 323.142 381.271 320.839 379.094 317.573C376.917 314.307 376.079 310.329 376.753 306.462L380.642 284.531L414.241 273.741Z" fill="#F6AEA6"/>
<path d="M384.795 274.296C384.795 274.296 384.97 274.852 384.152 275.29C383.333 275.729 381.958 274.852 381.607 273.536C381.218 272.119 381.099 270.64 381.257 269.179C381.257 267.512 381.432 265.845 381.52 264.091C381.544 259.649 382.073 255.225 383.099 250.903C383.626 255.264 383.626 259.672 383.099 264.032C383.099 265.787 382.865 267.454 382.719 269.121C382.529 270.43 382.529 271.759 382.719 273.068C382.894 274.121 383.625 274.618 384.093 274.559C384.561 274.501 384.707 274.092 384.795 274.296Z" fill="#251A51"/>
<path d="M376.168 295.292C380.095 297.306 384.375 298.538 388.771 298.918C393.185 298.742 397.519 297.688 401.521 295.818C401.521 295.818 400.527 297.105 398.275 298.245C395.325 299.751 392.049 300.504 388.738 300.438C385.427 300.372 382.184 299.488 379.297 297.865C377.25 296.608 376.051 295.438 376.168 295.292Z" fill="#251A51"/>
<path d="M381.373 279.531C381.549 279.384 382.163 279.911 383.274 280.379C384.662 281.038 386.25 281.142 387.712 280.669C389.175 280.196 390.401 279.182 391.14 277.835C391.783 276.811 391.959 276.022 392.193 276.051C392.427 276.08 392.602 276.957 392.193 278.302C391.859 279.19 391.328 279.99 390.638 280.641C389.949 281.292 389.12 281.777 388.214 282.059C387.309 282.341 386.351 282.413 385.414 282.269C384.477 282.124 383.585 281.768 382.806 281.227C381.578 280.496 381.227 279.648 381.373 279.531Z" fill="#251A51"/>
<path d="M415.089 275.788C415.089 275.554 415.732 275.437 416.405 274.969C416.587 274.861 416.746 274.717 416.872 274.546C416.997 274.375 417.087 274.181 417.136 273.975C417.136 273.536 417.136 273.185 416.814 273.097C416.736 273.061 416.652 273.042 416.566 273.042C416.48 273.042 416.395 273.061 416.317 273.097L415.031 272.425C416.054 270.378 416.99 268.974 417.311 269.121C417.633 269.267 417.311 270.904 416.376 273.039L415.06 272.366C415.271 272.065 415.562 271.83 415.9 271.686C416.239 271.543 416.611 271.498 416.973 271.556C417.336 271.613 417.676 271.772 417.953 272.014C418.23 272.256 418.433 272.57 418.54 272.922C418.702 273.396 418.702 273.91 418.54 274.384C418.4 274.74 418.183 275.061 417.905 275.324C417.627 275.587 417.295 275.785 416.931 275.905C415.732 276.285 415.06 275.963 415.089 275.788Z" fill="#251A51"/>
<path d="M394.591 250.026C394.444 249.646 395.848 248.856 397.515 249.324C399.182 249.792 400.147 251.166 399.825 251.429C399.503 251.692 398.45 251.137 397.135 250.786C395.819 250.435 394.795 250.435 394.591 250.026Z" fill="#251A51"/>
<path d="M371.577 246.371C371.402 246.02 372.776 245.055 374.764 245.23C376.753 245.406 377.923 246.604 377.689 246.926C377.455 247.248 376.197 246.926 374.764 246.751C373.332 246.575 371.753 246.78 371.577 246.371Z" fill="#251A51"/>
<path d="M414.241 262.892C406.814 255.64 404.621 243.593 402.544 233.416C399.067 235.89 395.035 237.472 390.803 238.023C386.571 238.573 382.269 238.076 378.274 236.575C375.738 239.508 372.782 242.051 369.501 244.119C369.095 244.448 368.627 244.693 368.125 244.839C367.623 244.984 367.096 245.028 366.577 244.967C365.349 244.587 364.793 243.154 364.501 242.043C363.449 237.985 363.591 233.71 364.91 229.732C365.6 227.772 366.692 225.979 368.118 224.468C369.543 222.957 371.27 221.762 373.186 220.96C377.486 219.654 382.087 219.726 386.345 221.164C392.85 222.845 399.09 225.424 404.884 228.826C410.811 231.814 415.574 236.691 418.423 242.686C420.85 248.798 420.82 260.728 415.031 263.828" fill="#E3707F"/>
<path d="M370.408 313.831C377.601 310.907 322.276 331.376 322.276 331.376L327.89 369.215L348.915 362.314L370.408 313.831Z" fill="#251A51"/>
<path d="M296.982 313.831C296.982 313.831 311.427 293.654 308.854 293.654C306.281 293.654 304.936 297.456 300.082 300.058C300.082 300.058 308.065 274.823 305.608 275.378C303.152 275.934 297.245 292.104 296.836 292.075C296.426 292.046 301.895 273.916 299.76 273.682C297.625 273.448 292.683 290.35 292.683 290.35C292.683 290.35 296.134 274.296 293.97 273.945C291.806 273.594 288.59 288.362 288.59 288.362C288.59 288.362 291.163 275.963 289.174 275.641C287.975 275.466 277.068 306.257 277.068 306.257L297.011 313.831" fill="#F6AEA6"/>
<path d="M408.626 385.707C408.288 384.764 408.071 383.781 407.983 382.783C407.691 380.882 407.311 378.104 406.872 374.683C405.965 367.84 404.854 358.366 403.714 347.898C403.378 345.286 403.378 342.643 403.714 340.032C404.082 337.537 405.09 335.179 406.638 333.189C409.343 329.92 413.11 327.705 417.282 326.931C420.001 326.414 422.785 326.335 425.528 326.697C426.534 326.752 427.523 326.979 428.452 327.37C427.48 327.463 426.501 327.463 425.528 327.37C422.848 327.25 420.163 327.486 417.545 328.072C413.709 328.95 410.28 331.092 407.808 334.154C406.409 335.952 405.52 338.093 405.234 340.353C404.913 342.828 404.913 345.335 405.234 347.81C406.346 358.278 407.311 367.782 407.925 374.654C408.246 378.104 408.451 380.882 408.597 382.812C408.718 383.773 408.727 384.744 408.626 385.707Z" fill="#251A51"/>
<path d="M406.667 383.309C414.191 383.339 421.703 383.876 429.154 384.918C436.653 385.465 444.106 386.51 451.466 388.046C443.942 388.017 436.43 387.479 428.979 386.438C421.481 385.891 414.027 384.846 406.667 383.309Z" fill="#251A51"/>
<path d="M341.254 217.217V260.494H312.334L311.398 276.899L294.409 259.559H230.72L236.335 214L341.254 217.217Z" fill="#6E3281"/>
<path d="M331.37 237.92C302.918 237.335 274.29 237.13 245.838 237.744C245.73 237.744 245.626 237.787 245.549 237.864C245.472 237.941 245.429 238.045 245.429 238.154C245.429 238.262 245.472 238.366 245.549 238.443C245.626 238.52 245.73 238.563 245.838 238.563C274.29 239.177 302.918 238.972 331.37 238.388C331.432 238.388 331.492 238.363 331.536 238.319C331.58 238.275 331.604 238.216 331.604 238.154C331.604 238.092 331.58 238.032 331.536 237.988C331.492 237.944 331.432 237.92 331.37 237.92Z" fill="#E4E1EA"/>
<path d="M331.37 246.663C313.825 246.107 296.28 245.961 278.735 246.487C278.641 246.512 278.559 246.567 278.5 246.644C278.441 246.721 278.409 246.815 278.409 246.911C278.409 247.008 278.441 247.102 278.5 247.179C278.559 247.256 278.641 247.311 278.735 247.335C296.28 247.862 313.825 247.716 331.37 247.16C331.422 247.142 331.466 247.108 331.498 247.064C331.53 247.019 331.547 246.966 331.547 246.911C331.547 246.857 331.53 246.804 331.498 246.759C331.466 246.714 331.422 246.681 331.37 246.663Z" fill="#E4E1EA"/>
<path d="M373.975 258.126C373.595 258.301 373.01 257.921 372.455 257.395C371.899 256.868 371.49 256.342 371.665 255.933C371.841 255.523 372.747 255.582 373.507 256.283C374.268 256.985 374.326 257.95 373.975 258.126Z" fill="#251A51"/>
<path d="M396.17 260.67C395.789 260.845 395.117 260.173 394.444 259.295C393.772 258.418 393.333 257.599 393.596 257.248C393.859 256.898 394.883 257.248 395.672 258.389C396.462 259.529 396.55 260.523 396.17 260.67Z" fill="#251A51"/>
<g opacity="0.18">
<path d="M391.081 279.706C391.725 281.694 391.081 283.683 389.765 284.092C388.449 284.502 386.841 283.244 386.169 281.168C385.496 279.092 386.169 277.191 387.514 276.753C388.859 276.314 390.467 277.688 391.081 279.706Z" fill="#251A51"/>
</g>
<g opacity="0.13">
<path d="M404.474 265.816C404.474 267.922 401.784 269.647 398.421 269.676C395.058 269.705 392.339 268.009 392.31 265.904C392.28 263.799 395.029 262.103 398.392 262.073C401.755 262.044 404.474 263.74 404.474 265.816Z" fill="#251A51"/>
</g>
<g opacity="0.13">
<path d="M379.414 267.6C379.414 269.705 376.724 271.431 373.361 271.46C369.998 271.489 367.279 269.793 367.25 267.688C367.221 265.582 369.969 263.857 373.332 263.828C376.695 263.799 379.414 265.524 379.414 267.6Z" fill="#251A51"/>
</g>
<path d="M415.732 245.23C415.732 245.055 416.113 244.382 415.732 243.183C415.352 241.984 414.124 240.259 413.188 238.388C411.776 236.128 410.786 233.631 410.264 231.019C412.127 232.944 413.606 235.207 414.621 237.686C415.608 239.33 416.365 241.1 416.873 242.949C416.998 243.604 416.873 244.283 416.522 244.85C416.054 245.23 415.791 245.289 415.732 245.23Z" fill="#6338A1"/>
<path d="M351.167 370.267L346.254 435.476L414.183 444.571L409.592 369.332L351.167 370.267Z" fill="#8AA9FC"/>
<path d="M356.547 326.083V377.783L364.501 374.829V315.907L356.547 318.305" fill="#8AA9FC"/>
<path d="M419.504 318.89C419.504 318.89 388.947 322.837 397.895 372.928L405.585 373.776C405.585 373.776 396.813 326.697 425.762 323.335L419.504 318.89Z" fill="#8AA9FC"/>
<path d="M410.469 377.022C410.469 377.022 420.937 438.751 406.17 437.231C357.6 432.231 328.68 431.558 328.68 431.558L320.639 448.284C320.434 451.208 412.604 477.526 427.429 468.753C437.898 462.583 454.536 446.003 446.992 396.41L445.208 379.8L410.469 377.022Z" fill="#F6AEA6"/>
<path d="M437.43 336.113C437.43 336.113 448.746 346.991 451.29 388.163L407.428 383.309C407.428 383.309 400.117 313.188 437.43 336.113Z" fill="#251A51"/>
<path d="M333.797 431.558C333.797 431.558 310.024 424.101 310.843 426.558C311.661 429.014 315.697 429.102 319.615 433.049C319.615 433.049 293.064 433.342 294.321 435.535C295.579 437.728 312.919 438.284 313.007 438.634C313.094 438.985 294.087 439.482 294.526 441.559C294.964 443.635 312.626 443.108 312.626 443.108C312.626 443.108 296.251 444.834 296.573 447.027C296.894 449.22 312.012 447.641 312.012 447.641C312.012 447.641 299.38 449.074 299.702 451.062C299.906 452.261 336.722 452.524 336.809 453.431C336.809 453.869 333.68 431.616 333.68 431.616" fill="#F6AEA6"/>
<path d="M364.091 370.618C364.296 370.618 364.735 371.642 364.91 373.543C365.017 374.73 364.794 375.924 364.267 376.993C363.937 377.718 363.412 378.337 362.752 378.781C362.091 379.225 361.319 379.476 360.524 379.508C359.746 379.474 358.988 379.251 358.316 378.859C357.643 378.467 357.076 377.917 356.664 377.256C356.025 376.253 355.643 375.108 355.553 373.923C355.553 372.022 355.553 370.998 355.874 370.998C356.196 370.998 356.255 372.168 356.635 373.923C356.83 374.892 357.229 375.809 357.804 376.613C358.11 377.059 358.514 377.428 358.986 377.692C359.458 377.955 359.984 378.107 360.524 378.133C361.052 378.113 361.564 377.95 362.007 377.662C362.45 377.374 362.806 376.971 363.039 376.496C363.554 375.607 363.826 374.599 363.828 373.572C363.945 371.817 363.857 370.794 364.091 370.618Z" fill="#251A51"/>
<path d="M359.296 371.642C359.296 371.817 359.296 372.168 359.296 372.548C359.296 372.928 359.705 373.133 360.085 372.899C360.465 372.665 360.436 372.373 360.085 372.022C359.734 371.671 359.442 371.7 359.296 371.525C359.15 371.349 359.588 370.794 360.524 371.028C360.805 371.1 361.062 371.242 361.272 371.442C361.482 371.641 361.637 371.891 361.723 372.168C361.816 372.542 361.791 372.934 361.652 373.293C361.514 373.652 361.268 373.96 360.948 374.174C360.629 374.388 360.251 374.498 359.866 374.49C359.482 374.482 359.109 374.355 358.799 374.127C358.579 373.939 358.41 373.698 358.308 373.427C358.206 373.156 358.174 372.864 358.214 372.578C358.506 371.613 359.237 371.466 359.296 371.642Z" fill="#251A51"/>
<path d="M404.825 369.536C404.825 369.536 405.585 370.18 405.381 371.525C405.265 372.436 404.83 373.276 404.154 373.898C403.478 374.519 402.603 374.881 401.686 374.92C400.768 374.958 399.867 374.671 399.141 374.108C398.415 373.546 397.911 372.745 397.719 371.847C397.427 370.531 397.953 369.77 398.099 369.829C398.246 369.887 398.275 370.589 398.743 371.466C398.951 372.056 399.344 372.563 399.862 372.913C400.38 373.264 400.997 373.439 401.622 373.412C402.247 373.386 402.847 373.16 403.334 372.768C403.821 372.376 404.169 371.837 404.328 371.232C404.737 370.326 404.62 369.624 404.825 369.536Z" fill="#251A51"/>
<path d="M399.883 367.87C399.883 367.87 400.146 367.139 401.141 367.139C401.442 367.135 401.74 367.199 402.013 367.325C402.286 367.452 402.528 367.638 402.72 367.87C402.96 368.207 403.089 368.611 403.089 369.025C403.089 369.439 402.96 369.843 402.72 370.18C402.503 370.568 402.15 370.864 401.73 371.009C401.309 371.155 400.85 371.141 400.439 370.969C400.121 370.814 399.866 370.556 399.712 370.238C399.558 369.92 399.515 369.56 399.591 369.215C399.616 369.003 399.697 368.803 399.826 368.633C399.954 368.464 400.125 368.331 400.322 368.25C400.614 368.25 400.76 368.25 400.79 368.25C400.819 368.25 400.497 368.688 400.79 369.156C401.082 369.624 401.141 369.712 401.55 369.156C401.959 368.601 401.55 368.25 400.994 367.987C400.439 367.723 400 367.87 399.883 367.87Z" fill="#251A51"/>
<path d="M398.275 400.035C397.866 400.035 397.807 398.632 397.836 397.111C397.866 395.591 398.041 394.187 398.48 394.187C398.918 394.187 399.416 395.445 399.357 397.111C399.299 398.778 398.685 400.035 398.275 400.035Z" fill="#251A51"/>
<path d="M392.924 410.27C392.631 409.948 393.304 408.837 394.21 407.58C395.117 406.322 395.965 405.357 396.345 405.533C396.725 405.708 396.345 407.112 395.439 408.457C394.532 409.802 393.216 410.562 392.924 410.27Z" fill="#251A51"/>
<path d="M382.718 415.534C382.718 415.124 383.859 414.598 385.321 414.13C386.783 413.662 388.04 413.34 388.245 413.721C388.45 414.101 387.397 415.036 385.789 415.563C384.18 416.089 382.777 415.943 382.718 415.534Z" fill="#251A51"/>
<path d="M371.402 414.042C371.606 413.662 372.864 413.896 374.326 414.335C375.788 414.773 377.045 415.212 376.987 415.65C376.928 416.089 375.554 416.235 373.917 415.65C372.279 415.066 371.08 414.422 371.402 414.042Z" fill="#251A51"/>
<path d="M362.805 406.235C363.185 406.03 364.092 406.966 365.027 408.194C365.963 409.422 366.694 410.504 366.402 410.826C366.109 411.147 364.881 410.475 363.828 409.13C362.776 407.784 362.454 406.439 362.805 406.235Z" fill="#251A51"/>
<path d="M360.261 394.977C360.699 394.977 360.904 396.292 361.021 397.901C361.138 399.509 361.021 400.825 360.699 400.825C360.378 400.825 359.617 399.685 359.5 397.901C359.383 396.117 359.851 394.918 360.261 394.977Z" fill="#251A51"/>
<path d="M370.086 393.164C370.086 393.602 368.77 393.895 367.162 393.836C365.554 393.778 364.238 393.398 364.238 392.959C364.238 392.52 365.583 392.257 367.162 392.316C368.741 392.374 370.115 392.754 370.086 393.164Z" fill="#251A51"/>
<path d="M381.783 393.602C381.783 394.012 380.438 394.304 378.859 394.246C377.28 394.187 375.935 393.807 375.935 393.398C375.935 392.988 377.28 392.667 378.859 392.725C380.438 392.784 381.812 393.193 381.783 393.602Z" fill="#251A51"/>
<path d="M393.479 394.012C393.479 394.45 392.134 394.743 390.555 394.684C388.976 394.626 387.631 394.216 387.631 393.807C387.631 393.398 388.976 393.105 390.555 393.164C392.134 393.222 393.479 393.602 393.479 394.012Z" fill="#251A51"/>
<path d="M398.333 524.839C400.27 516.637 401.483 508.281 401.959 499.867C401.959 497.293 397.865 496.65 397.398 499.252C395.955 507.567 395.241 515.991 395.263 524.43C395.286 524.794 395.435 525.139 395.684 525.407C395.934 525.674 396.268 525.846 396.63 525.894C396.992 525.943 397.36 525.864 397.671 525.671C397.981 525.479 398.215 525.185 398.333 524.839Z" fill="#E8947E"/>
<path d="M440.822 552.56L440.383 552.18C439.476 551.399 438.307 550.99 437.111 551.036C435.915 551.082 434.78 551.58 433.936 552.428C433.091 553.276 432.599 554.413 432.558 555.609C432.518 556.805 432.931 557.972 433.716 558.876L434.067 559.286C434.962 560.164 436.168 560.654 437.422 560.649C438.677 560.644 439.879 560.145 440.767 559.26C441.656 558.375 442.16 557.176 442.171 555.921C442.181 554.667 441.696 553.459 440.822 552.56Z" fill="#251A51"/>
<path d="M341.704 616.047C358.162 549.247 317.35 481.753 250.55 465.296C183.749 448.838 116.256 489.65 99.7984 556.45C83.3412 623.251 124.152 690.744 190.953 707.202C257.753 723.659 325.247 682.847 341.704 616.047Z" fill="#DDD2F3"/>
<path d="M239.639 544.226L322.276 575.193L314.38 541.828L335.873 536.36C335.873 536.36 359.003 601.598 342.949 603.353C314.848 606.277 272.302 595.253 272.302 595.253L239.639 544.226Z" fill="#F6AEA6"/>
<path d="M268.325 619.026L268.15 684.381C246.628 710.699 171.652 676.632 171.652 676.632L170.775 649.905L169.05 586.246C170.775 560.894 194.315 548.437 194.315 548.437C206.26 543.153 219.286 540.768 232.329 541.477C246.306 542.179 249.874 548.876 255.488 561.596C260.284 571.889 268.325 581.568 268.325 619.026Z" fill="#6338A1"/>
<path d="M202.473 607.154C202.473 607.154 191.975 668.854 206.742 667.334C255.313 662.333 284.262 661.661 284.262 661.661L292.449 678.387C292.625 681.311 200.455 707.629 185.659 698.856C175.19 692.686 158.523 676.106 166.096 626.512L167.88 609.903L202.473 607.154Z" fill="#F6AEA6"/>
<path d="M175.746 566.216C175.746 566.216 164.4 577.094 161.885 618.266L205.748 613.412C205.748 613.412 213.029 543.32 175.746 566.216Z" fill="#6338A1"/>
<path d="M197.707 479.924L198.701 492.995C198.701 492.995 187.589 494.486 190.747 504.691C193.905 514.897 201.508 510.393 201.508 510.393C201.508 510.393 203.409 536.36 230.019 528.114C251.19 521.564 249.903 494.164 247.213 470.771C246.963 468.63 246.273 466.564 245.187 464.702C244.1 462.84 242.641 461.223 240.9 459.952C239.16 458.681 237.175 457.783 235.071 457.315C232.967 456.847 230.789 456.819 228.674 457.232L212.678 460.361C208.217 461.217 204.226 463.683 201.466 467.29C198.705 470.897 197.367 475.394 197.707 479.924Z" fill="#F6AEA6"/>
<path d="M198.7 503.843L205.865 542.062C206.248 544.103 207.041 546.046 208.197 547.771C209.352 549.497 210.846 550.97 212.587 552.102C214.328 553.234 216.281 554 218.328 554.355C220.374 554.711 222.471 554.647 224.492 554.168C228.282 553.253 231.584 550.932 233.728 547.675C235.873 544.417 236.7 540.467 236.042 536.623L232.153 514.721L198.7 503.843Z" fill="#F6AEA6"/>
<path d="M228.118 504.282C228.118 504.282 228.439 504.604 228.937 504.662C229.434 504.721 230.135 504.224 230.311 503.2C230.499 501.881 230.499 500.542 230.311 499.223L229.931 494.135C229.44 489.772 229.44 485.368 229.931 481.006C230.975 485.274 231.506 489.653 231.51 494.047L231.773 499.135C231.925 500.595 231.816 502.071 231.451 503.492C231.1 504.808 229.726 505.627 228.878 505.247C228.03 504.867 228.118 504.253 228.118 504.282Z" fill="#251A51"/>
<path d="M236.89 525.394C236.89 525.394 235.955 526.71 233.761 527.968C230.88 529.59 227.641 530.474 224.335 530.541C221.029 530.607 217.757 529.854 214.813 528.348C212.561 527.207 211.45 526.067 211.567 525.921C215.569 527.791 219.903 528.844 224.316 529.02C228.705 528.649 232.978 527.417 236.89 525.394Z" fill="#251A51"/>
<path d="M231.569 509.633C231.569 509.633 231.364 510.598 230.194 511.417C229.406 511.95 228.507 512.298 227.565 512.434C226.623 512.571 225.663 512.493 224.755 512.206C223.85 511.918 223.023 511.425 222.339 510.766C221.654 510.107 221.13 509.299 220.808 508.405C220.34 507.06 220.544 506.153 220.808 506.153C221.071 506.153 221.217 506.943 221.831 507.966C222.607 509.312 223.827 510.346 225.282 510.891C226.752 511.313 228.324 511.209 229.726 510.598C230.779 510.013 231.393 509.487 231.569 509.633Z" fill="#251A51"/>
<path d="M197.852 505.89C197.852 506.066 197.209 506.387 196.039 506.037C195.677 505.921 195.347 505.723 195.073 505.46C194.799 505.196 194.59 504.873 194.46 504.516C194.298 504.042 194.298 503.528 194.46 503.054C194.541 502.766 194.689 502.502 194.892 502.283C195.096 502.064 195.349 501.897 195.63 501.796C196.031 501.618 196.483 501.59 196.902 501.719C197.322 501.848 197.68 502.125 197.911 502.498L196.624 503.171C195.776 501.036 195.367 499.399 195.689 499.252C196.01 499.106 196.946 500.51 197.969 502.586L196.683 503.259C196.603 503.212 196.512 503.188 196.42 503.188C196.327 503.188 196.236 503.212 196.156 503.259C195.893 503.259 195.747 503.697 195.835 504.136C195.945 504.547 196.206 504.902 196.566 505.13C197.209 505.539 197.882 505.656 197.852 505.89Z" fill="#251A51"/>
<path d="M218.351 480.128C218.351 480.538 217.006 480.538 215.69 480.918C214.374 481.298 213.322 481.824 213 481.532C212.678 481.24 213.497 479.894 215.31 479.427C217.123 478.959 218.498 479.748 218.351 480.128Z" fill="#251A51"/>
<path d="M241.335 476.502C241.335 476.883 239.873 476.678 238.411 476.853C236.949 477.029 235.487 477.38 235.487 477.029C235.487 476.678 236.452 475.508 238.411 475.333C240.37 475.157 241.54 476.064 241.335 476.502Z" fill="#251A51"/>
<path d="M198.701 492.995C206.128 485.743 208.292 473.695 210.397 463.519C213.876 465.991 217.908 467.571 222.139 468.122C226.371 468.672 230.673 468.176 234.668 466.677C237.199 469.616 240.156 472.159 243.44 474.222C243.844 474.555 244.312 474.803 244.815 474.949C245.318 475.094 245.845 475.136 246.365 475.07C247.622 474.689 248.178 473.286 248.47 472.145C249.526 468.087 249.374 463.808 248.031 459.835C247.349 457.876 246.262 456.083 244.841 454.572C243.42 453.06 241.698 451.865 239.785 451.062C235.483 449.77 230.886 449.842 226.626 451.267C220.121 452.948 213.881 455.526 208.087 458.928C202.16 461.917 197.397 466.793 194.548 472.789C192.121 478.929 192.121 490.831 197.94 493.93" fill="#251A51"/>
<path d="M242.534 543.934C235.34 541.01 290.666 561.479 290.666 561.479L285.051 599.317L263.997 592.416L242.534 543.934Z" fill="#6338A1"/>
<path d="M279.145 661.661C279.145 661.661 302.918 654.204 302.099 656.66C301.281 659.117 297.245 659.204 293.327 663.152C293.327 663.152 319.908 663.444 318.621 665.638C317.334 667.831 300.053 668.386 299.965 668.737C299.877 669.088 318.884 669.585 318.446 671.661C318.007 673.737 300.345 673.211 300.345 673.211C300.345 673.211 316.72 674.936 316.399 677.129C316.077 679.323 300.959 677.744 300.959 677.744C300.959 677.744 313.591 679.176 313.27 681.165C313.065 682.364 276.25 682.627 276.162 683.533C276.162 684.001 279.291 661.719 279.291 661.719" fill="#F6AEA6"/>
<path d="M315.843 543.934C315.843 543.934 301.426 523.757 304.146 523.757C306.865 523.757 308.064 527.588 312.918 530.19C312.918 530.19 304.935 504.955 307.392 505.481C309.848 506.007 315.755 522.207 316.164 522.178C316.574 522.149 311.076 504.019 313.24 503.785C315.404 503.551 320.287 520.453 320.287 520.453C320.287 520.453 316.866 504.399 319.03 504.048C321.194 503.697 324.41 518.464 324.41 518.464C324.41 518.464 321.837 506.066 323.826 505.744C325.024 505.569 335.902 536.36 335.902 536.36L315.96 543.934" fill="#F6AEA6"/>
<path d="M182.823 599.434C182.998 599.434 183.524 600.37 183.554 602.359C183.552 602.96 183.412 603.553 183.143 604.091C182.874 604.628 182.484 605.096 182.004 605.458C181.68 605.698 181.311 605.869 180.918 605.96C180.526 606.05 180.119 606.059 179.723 605.984C178.949 605.776 178.262 605.325 177.764 604.698C176.828 603.616 176.214 602.973 175.249 602.856C174.84 602.794 174.423 602.819 174.025 602.93C173.627 603.041 173.257 603.235 172.939 603.499C171.828 604.522 171.857 605.721 171.623 605.692C171.389 605.663 170.892 604.435 172.179 602.768C172.565 602.301 173.061 601.936 173.622 601.707C174.183 601.477 174.792 601.39 175.395 601.452C176.127 601.507 176.827 601.771 177.413 602.212C177.943 602.655 178.433 603.144 178.875 603.674C180.395 605.751 182.384 603.674 182.472 602.242C182.559 600.809 182.589 599.464 182.823 599.434Z" fill="#F9F2FC"/>
<path d="M195.952 588.235C195.952 588.235 196.391 587.153 197.999 586.129C198.518 585.819 199.102 585.632 199.705 585.581C200.308 585.53 200.915 585.618 201.479 585.837C201.846 585.991 202.178 586.218 202.455 586.504C202.731 586.791 202.946 587.131 203.087 587.504C203.339 588.263 203.339 589.084 203.087 589.843C202.596 590.812 202.502 591.934 202.824 592.972C202.975 593.356 203.212 593.7 203.516 593.978C203.82 594.257 204.183 594.463 204.578 594.58C206.04 595.019 207.034 594.376 207.122 594.58C207.21 594.785 206.42 595.867 204.198 595.633C203.576 595.559 202.982 595.331 202.471 594.968C201.96 594.605 201.549 594.12 201.274 593.557C200.95 592.895 200.819 592.155 200.894 591.422C200.995 590.748 201.151 590.083 201.362 589.434C202.356 587.065 199.607 586.51 198.262 587.124C196.917 587.738 195.952 588.44 195.952 588.235Z" fill="#F9F2FC"/>
<path d="M194.928 560.309C194.928 560.309 195.367 559.227 196.975 558.204C197.495 557.892 198.08 557.706 198.684 557.66C199.288 557.614 199.895 557.71 200.455 557.94C200.82 558.091 201.15 558.313 201.427 558.595C201.703 558.876 201.92 559.211 202.063 559.578C202.314 560.348 202.314 561.177 202.063 561.947C201.571 562.905 201.477 564.019 201.8 565.046C201.946 565.433 202.18 565.781 202.485 566.06C202.79 566.339 203.157 566.543 203.555 566.654C205.017 567.093 206.011 566.45 206.099 566.654C206.187 566.859 205.397 567.941 203.175 567.736C202.551 567.655 201.958 567.42 201.447 567.052C200.937 566.685 200.526 566.196 200.25 565.631C199.929 564.979 199.798 564.249 199.87 563.526C199.968 562.841 200.125 562.166 200.338 561.508C201.332 559.169 198.584 558.584 197.239 559.198C195.893 559.812 195.075 560.514 194.928 560.309Z" fill="#F9F2FC"/>
<path d="M222.62 596.686C222.62 596.686 221.509 596.335 220.339 594.814C219.99 594.325 219.755 593.763 219.654 593.171C219.553 592.578 219.587 591.97 219.755 591.393C219.875 591.012 220.072 590.66 220.333 590.358C220.595 590.057 220.915 589.812 221.275 589.638C222.017 589.332 222.84 589.281 223.614 589.492C224.619 589.894 225.739 589.894 226.743 589.492C227.108 589.297 227.426 589.026 227.678 588.699C227.93 588.371 228.11 587.994 228.205 587.591C228.498 586.1 227.767 585.164 227.971 585.047C228.176 584.931 229.287 585.632 229.258 587.738C229.17 588.707 228.722 589.609 228.002 590.264C227.282 590.919 226.342 591.28 225.369 591.276C224.679 591.246 223.993 591.149 223.322 590.984C220.895 590.194 220.398 593.001 221.275 594.259C222.152 595.516 222.825 596.51 222.62 596.686Z" fill="#F9F2FC"/>
<path d="M241.51 625.869C241.51 626.015 240.984 626.922 239.288 627.828C238.746 628.092 238.151 628.229 237.548 628.229C236.945 628.229 236.35 628.092 235.808 627.828C235.451 627.648 235.134 627.398 234.878 627.091C234.621 626.784 234.43 626.428 234.317 626.044C234.15 625.259 234.232 624.441 234.551 623.705C234.836 623.253 235.027 622.748 235.112 622.22C235.197 621.693 235.176 621.154 235.048 620.635C234.932 620.238 234.727 619.874 234.448 619.57C234.17 619.266 233.824 619.03 233.44 618.88C232.007 618.354 230.983 618.88 230.866 618.705C230.749 618.529 231.685 617.477 233.791 617.857C234.383 617.99 234.934 618.269 235.393 618.666C235.852 619.064 236.206 619.57 236.422 620.138C236.704 620.811 236.796 621.55 236.686 622.272C236.524 622.941 236.309 623.597 236.042 624.231C234.902 626.512 237.592 627.36 238.966 626.775C240.341 626.19 241.364 625.664 241.51 625.869Z" fill="#F9F2FC"/>
<path d="M263.734 579.813C263.734 579.959 263.208 580.866 261.512 581.772C260.977 582.042 260.386 582.183 259.786 582.183C259.187 582.183 258.596 582.042 258.061 581.772C257.698 581.596 257.376 581.347 257.114 581.04C256.853 580.733 256.657 580.375 256.541 579.989C256.375 579.203 256.457 578.386 256.775 577.649C257.354 576.749 257.564 575.659 257.359 574.608C257.226 574.217 257.011 573.858 256.729 573.555C256.447 573.253 256.103 573.014 255.722 572.854C254.289 572.327 253.266 572.854 253.178 572.678C253.09 572.503 253.967 571.45 256.102 571.83C256.695 571.964 257.245 572.242 257.704 572.64C258.164 573.038 258.517 573.543 258.734 574.111C259.013 574.786 259.104 575.523 258.997 576.246C258.835 576.915 258.62 577.57 258.354 578.205C257.213 580.486 259.903 581.334 261.278 580.778C262.652 580.223 263.588 579.609 263.734 579.813Z" fill="#F9F2FC"/>
<path d="M278.881 572.824C278.881 572.678 280.051 572.824 281.455 574.228C281.896 574.643 282.234 575.155 282.442 575.724C282.65 576.292 282.722 576.902 282.654 577.503C282.62 577.898 282.5 578.28 282.303 578.623C282.106 578.967 281.837 579.263 281.513 579.492C280.834 579.923 280.035 580.128 279.232 580.076C278.222 579.899 277.183 580.097 276.308 580.632C275.982 580.889 275.714 581.212 275.523 581.58C275.331 581.948 275.22 582.352 275.197 582.767C275.197 584.287 276.074 585.077 275.899 585.223C275.723 585.369 274.495 584.901 274.144 582.825C274.067 582.225 274.138 581.615 274.352 581.049C274.566 580.482 274.917 579.978 275.372 579.579C275.927 579.087 276.604 578.754 277.332 578.614C278.013 578.557 278.697 578.557 279.378 578.614C281.923 578.907 281.806 576.1 280.782 574.988C279.759 573.877 278.735 573 278.881 572.824Z" fill="#F9F2FC"/>
<path d="M217.532 649.701C217.532 649.701 217.035 650.753 215.339 651.631C214.799 651.901 214.203 652.042 213.599 652.042C212.995 652.042 212.4 651.901 211.859 651.631C211.502 651.451 211.185 651.2 210.929 650.893C210.672 650.587 210.481 650.23 210.368 649.847C210.203 649.071 210.285 648.264 210.602 647.537C211.158 646.192 211.45 645.344 211.099 644.437C210.969 644.048 210.759 643.691 210.482 643.389C210.204 643.087 209.867 642.846 209.491 642.683C208.058 642.156 207.005 642.683 206.918 642.537C206.83 642.39 207.707 641.308 209.842 641.659C210.434 641.793 210.985 642.071 211.444 642.469C211.903 642.867 212.257 643.372 212.473 643.94C212.759 644.624 212.84 645.375 212.707 646.104C212.569 646.766 212.363 647.413 212.093 648.034C210.924 650.344 213.643 651.192 215.018 650.607C216.392 650.022 217.415 649.467 217.532 649.701Z" fill="#F9F2FC"/>
<path d="M250.429 605.37C250.429 605.37 249.376 604.903 248.412 603.265C248.109 602.74 247.936 602.151 247.905 601.546C247.875 600.941 247.988 600.338 248.236 599.785C248.396 599.42 248.629 599.092 248.921 598.821C249.213 598.549 249.557 598.34 249.932 598.206C250.691 597.952 251.512 597.952 252.271 598.206C253.223 598.709 254.326 598.844 255.371 598.586C255.76 598.436 256.113 598.205 256.406 597.907C256.698 597.61 256.924 597.253 257.067 596.861C257.535 595.428 256.921 594.405 257.067 594.317C257.213 594.229 258.324 595.048 258.032 597.241C257.918 597.839 257.662 598.401 257.285 598.879C256.908 599.358 256.423 599.739 255.868 599.99C255.204 600.306 254.461 600.418 253.733 600.312C253.052 600.2 252.385 600.014 251.745 599.756C249.435 598.703 248.821 601.452 249.318 602.68C249.815 603.908 250.634 605.224 250.429 605.37Z" fill="#F9F2FC"/>
<path d="M256.336 629.173C256.336 629.173 255.283 628.705 254.318 627.068C254.016 626.543 253.842 625.954 253.812 625.349C253.781 624.744 253.895 624.141 254.143 623.588C254.303 623.223 254.536 622.895 254.828 622.623C255.119 622.352 255.463 622.143 255.839 622.009C256.615 621.816 257.432 621.867 258.178 622.155C258.644 622.42 259.158 622.59 259.69 622.655C260.222 622.72 260.762 622.679 261.278 622.535C261.666 622.397 262.018 622.173 262.306 621.879C262.595 621.585 262.813 621.23 262.945 620.839C263.442 619.377 262.945 618.383 262.945 618.266C262.945 618.149 264.202 619.026 263.91 621.19C263.686 622.125 263.121 622.944 262.326 623.484C261.531 624.025 260.563 624.25 259.611 624.114C258.933 624.002 258.267 623.826 257.623 623.588C255.312 622.535 254.698 625.255 255.195 626.512C255.693 627.77 256.541 629.056 256.336 629.173Z" fill="#F9F2FC"/>
<path d="M208.73 619.026C208.584 619.026 208.262 617.944 208.73 616.102C208.862 615.515 209.129 614.966 209.51 614.499C209.891 614.032 210.374 613.66 210.923 613.412C211.292 613.251 211.69 613.168 212.093 613.168C212.496 613.168 212.894 613.251 213.263 613.412C213.96 613.795 214.529 614.375 214.9 615.079C215.573 616.365 216.041 617.126 216.947 617.447C217.324 617.617 217.733 617.704 218.146 617.704C218.559 617.704 218.968 617.617 219.345 617.447C220.661 616.687 220.866 615.517 221.099 615.576C221.333 615.634 221.538 616.979 219.93 618.324C219.444 618.691 218.876 618.936 218.276 619.038C217.675 619.139 217.059 619.095 216.479 618.909C215.791 618.671 215.176 618.258 214.696 617.71C214.27 617.162 213.898 616.575 213.584 615.956C212.561 613.617 210.192 615.166 209.754 616.57C209.315 617.974 208.964 619.056 208.73 619.026Z" fill="#F9F2FC"/>
<path d="M251.716 648.414C251.716 648.414 251.248 647.361 251.716 645.49C251.841 644.9 252.106 644.348 252.487 643.88C252.869 643.412 253.356 643.042 253.909 642.8C254.274 642.643 254.667 642.562 255.064 642.562C255.461 642.562 255.854 642.643 256.219 642.8C256.93 643.174 257.511 643.755 257.886 644.467C258.558 645.753 258.997 646.513 259.933 646.835C260.302 647.012 260.707 647.103 261.117 647.103C261.527 647.103 261.931 647.012 262.301 646.835C263.617 646.075 263.851 644.905 264.056 644.964C264.26 645.022 264.494 646.367 262.915 647.712C262.431 648.084 261.864 648.331 261.263 648.433C260.661 648.535 260.044 648.488 259.465 648.297C258.759 648.078 258.13 647.662 257.652 647.098C257.232 646.563 256.869 645.984 256.57 645.373C255.546 643.034 253.149 644.554 252.739 645.987C252.33 647.42 251.979 648.59 251.716 648.414Z" fill="#F9F2FC"/>
<path d="M250.488 559.373C250.312 559.373 250.02 558.291 250.488 556.449C250.624 555.867 250.893 555.324 251.273 554.862C251.653 554.401 252.135 554.033 252.681 553.788C253.05 553.627 253.448 553.544 253.85 553.544C254.253 553.544 254.651 553.627 255.02 553.788C255.724 554.163 256.295 554.745 256.658 555.455C257.33 556.742 257.798 557.502 258.704 557.824C259.083 557.986 259.495 558.058 259.906 558.033C260.318 558.007 260.717 557.885 261.073 557.677C262.389 556.946 262.623 555.777 262.857 555.835C263.091 555.894 263.295 557.239 261.687 558.584C261.201 558.95 260.632 559.192 260.031 559.289C259.429 559.386 258.814 559.334 258.237 559.139C257.536 558.924 256.909 558.519 256.424 557.97C256.023 557.41 255.662 556.824 255.342 556.215C254.318 553.876 251.95 555.396 251.511 556.829C251.072 558.262 250.721 559.403 250.488 559.373Z" fill="#F9F2FC"/>
<path d="M236.422 660.286C236.422 660.286 235.253 660.286 233.703 659.175C233.217 658.821 232.82 658.36 232.541 657.827C232.262 657.295 232.109 656.706 232.095 656.105C232.092 655.706 232.171 655.311 232.327 654.944C232.483 654.577 232.712 654.245 233.001 653.97C233.62 653.455 234.39 653.158 235.194 653.122C236.627 653.122 237.504 652.888 238.118 652.157C238.402 651.864 238.622 651.515 238.763 651.133C238.904 650.75 238.963 650.342 238.937 649.935C238.762 648.414 237.767 647.742 237.914 647.566C238.06 647.391 239.376 647.712 239.99 649.73C240.14 650.321 240.142 650.941 239.994 651.533C239.846 652.125 239.553 652.671 239.142 653.122C238.664 653.68 238.034 654.087 237.329 654.292C236.671 654.477 235.994 654.585 235.311 654.613C232.767 654.613 233.235 657.538 234.375 658.386C235.516 659.234 236.569 660.023 236.422 660.286Z" fill="#F9F2FC"/>
<path d="M185.425 572.824C185.571 572.824 186.448 573.409 187.267 575.135C187.504 575.685 187.611 576.282 187.58 576.88C187.55 577.478 187.383 578.062 187.092 578.585C186.896 578.932 186.632 579.236 186.316 579.477C185.999 579.718 185.636 579.892 185.25 579.989C184.452 580.121 183.633 579.999 182.91 579.638C181.624 579.024 180.805 578.673 179.986 578.965C179.584 579.064 179.21 579.252 178.891 579.515C178.572 579.778 178.317 580.11 178.144 580.486C177.559 581.889 178.144 582.942 177.851 583.03C177.559 583.118 176.652 582.153 177.15 580.106C177.314 579.518 177.622 578.981 178.046 578.542C178.47 578.103 178.996 577.776 179.577 577.591C180.273 577.385 181.015 577.385 181.711 577.591C182.374 577.779 183.02 578.024 183.641 578.322C185.864 579.609 186.858 576.948 186.361 575.544C185.864 574.14 185.22 572.941 185.425 572.824Z" fill="#F9F2FC"/>
<path d="M234.668 563.993C234.814 563.993 235.691 564.578 236.481 566.304C236.724 566.857 236.835 567.46 236.805 568.064C236.774 568.668 236.603 569.257 236.306 569.783C236.121 570.138 235.86 570.448 235.541 570.691C235.223 570.934 234.855 571.103 234.463 571.187C233.676 571.306 232.87 571.183 232.153 570.836C231.298 570.25 230.257 570 229.229 570.134C228.835 570.251 228.47 570.449 228.157 570.716C227.845 570.983 227.592 571.313 227.416 571.684C226.802 573.058 227.416 574.14 227.094 574.228C226.773 574.316 225.925 573.351 226.393 571.304C226.557 570.717 226.865 570.179 227.289 569.74C227.713 569.301 228.239 568.975 228.82 568.789C229.524 568.567 230.279 568.567 230.984 568.789C231.641 568.964 232.279 569.21 232.884 569.52C235.107 570.778 236.101 568.146 235.604 566.596C235.107 565.046 234.434 564.11 234.668 563.993Z" fill="#F9F2FC"/>
<path d="M204.315 615.81C204.201 614.838 204.201 613.857 204.315 612.886C204.315 610.956 204.666 608.178 204.958 604.727C205.572 597.855 206.537 588.352 207.678 577.913C207.985 575.427 207.985 572.913 207.678 570.427C207.373 568.172 206.486 566.035 205.104 564.227C202.679 561.1 199.268 558.885 195.425 557.94C192.806 557.362 190.122 557.136 187.442 557.268C186.47 557.352 185.491 557.352 184.518 557.268C185.45 556.886 186.438 556.659 187.442 556.595C190.197 556.231 192.992 556.32 195.718 556.859C199.879 557.622 203.637 559.827 206.333 563.087C207.881 565.077 208.888 567.435 209.257 569.93C209.579 572.542 209.579 575.183 209.257 577.796C208.116 588.264 206.976 597.738 206.099 604.581C205.66 608.002 205.28 610.78 204.958 612.681C204.897 613.75 204.68 614.804 204.315 615.81Z" fill="#251A51"/>
<path d="M206.274 613.5C198.909 614.965 191.456 615.941 183.963 616.424C176.514 617.482 169 618.019 161.476 618.032C168.835 616.496 176.289 615.45 183.787 614.903C191.244 613.947 198.756 613.478 206.274 613.5Z" fill="#251A51"/>
<path d="M313.24 631.045C313.282 628.581 313.861 626.156 314.936 623.939C317.86 619.523 321.72 620.635 325.551 622.594C327.288 623.729 329.269 624.438 331.333 624.661C333.396 624.885 335.483 624.617 337.423 623.88C344.061 620.956 347.19 610.985 340.844 606.335C338.797 604.815 336.78 607.33 337.043 609.26C337.423 611.979 338.768 614.932 336.458 617.272C333.359 620.371 329.733 617.769 326.662 616.365C325.066 615.581 323.324 615.137 321.547 615.062C319.77 614.986 317.997 615.281 316.34 615.927C310.492 618.325 306.135 626.337 310.813 631.776C310.994 631.952 311.218 632.079 311.463 632.144C311.708 632.208 311.965 632.208 312.209 632.143C312.454 632.078 312.678 631.951 312.858 631.774C313.039 631.597 313.171 631.376 313.24 631.132V631.045Z" fill="#6E3281"/>
<path d="M358.477 535.921C353.886 540.337 352.161 547.209 356.518 552.501C358.619 554.944 361.557 556.511 364.756 556.895C367.954 557.279 371.18 556.453 373.8 554.578C386.227 544.957 373.273 527.237 359.852 530.921C359.34 531.069 358.898 531.396 358.607 531.842C358.317 532.288 358.195 532.824 358.266 533.352C358.337 533.88 358.595 534.364 358.994 534.718C359.392 535.072 359.904 535.27 360.436 535.278C364.434 535.023 368.401 536.125 371.694 538.407C373.26 539.839 374.206 541.825 374.331 543.944C374.457 546.062 373.752 548.145 372.367 549.753C365.057 558.759 352.336 545.513 360.027 537.442C360.229 537.237 360.34 536.959 360.338 536.671C360.335 536.384 360.218 536.108 360.012 535.907C359.807 535.705 359.53 535.593 359.242 535.596C358.954 535.599 358.679 535.716 358.477 535.921Z" fill="#E3707F"/>
<path d="M609.967 340.966C605.896 344.956 604.367 351.165 608.23 355.947C610.092 358.153 612.698 359.57 615.533 359.917C618.369 360.264 621.229 359.517 623.551 357.823C634.57 349.13 623.085 333.119 611.185 336.448C610.731 336.582 610.34 336.877 610.082 337.281C609.824 337.684 609.717 338.168 609.78 338.645C609.842 339.121 610.071 339.56 610.424 339.879C610.778 340.199 611.231 340.378 611.704 340.385C615.248 340.155 618.765 341.151 621.685 343.212C623.073 344.506 623.911 346.301 624.023 348.215C624.134 350.128 623.509 352.011 622.281 353.463C615.8 361.601 604.522 349.632 611.341 342.34C611.519 342.155 611.618 341.904 611.616 341.644C611.614 341.384 611.51 341.135 611.328 340.953C611.145 340.771 610.9 340.67 610.644 340.673C610.389 340.675 610.145 340.781 609.967 340.966Z" fill="#E3707F"/>
<path d="M165.102 527.149C160.511 531.564 158.786 538.436 163.143 543.729C165.24 546.177 168.179 547.748 171.38 548.133C174.58 548.517 177.808 547.687 180.425 545.805C192.852 536.185 179.898 518.464 166.477 522.149C165.965 522.297 165.523 522.623 165.232 523.069C164.942 523.516 164.82 524.051 164.891 524.579C164.962 525.107 165.22 525.592 165.619 525.945C166.017 526.299 166.529 526.498 167.061 526.506C171.089 526.23 175.09 527.334 178.407 529.635C179.973 531.067 180.919 533.053 181.044 535.171C181.17 537.289 180.465 539.373 179.08 540.98C171.769 549.987 159.049 536.74 166.74 528.699C166.892 528.485 166.964 528.224 166.942 527.962C166.92 527.7 166.806 527.454 166.621 527.268C166.435 527.082 166.189 526.968 165.927 526.946C165.665 526.925 165.404 526.996 165.19 527.149H165.102Z" fill="#8AA9FC"/>
<path d="M98.4601 637.975C101.618 649.672 105.098 661.368 108.724 672.919C108.861 673.523 109.149 674.082 109.561 674.545C109.974 675.007 110.497 675.357 111.081 675.561C111.666 675.766 112.293 675.819 112.904 675.714C113.514 675.61 114.089 675.353 114.572 674.966C124.017 668.562 133.462 662.245 142.381 655.169C142.758 654.826 143.052 654.402 143.242 653.929C143.433 653.456 143.514 652.947 143.48 652.438C143.446 651.93 143.299 651.435 143.048 650.992C142.797 650.548 142.449 650.167 142.03 649.876C131.562 642.683 117.438 632.068 104.016 632.01C100.653 632.01 98.1677 636.747 101.706 638.706C107.057 641.806 113.403 642.917 119.251 645.285C125.942 647.935 132.309 651.34 138.229 655.432C138.229 653.502 138.492 651.572 138.638 649.584C128.637 655.754 119.222 662.626 109.718 669.527L115.333 670.638C111.297 659.175 107.116 647.771 102.612 636.484C102.375 635.977 101.96 635.575 101.447 635.355C100.933 635.134 100.356 635.11 99.8253 635.287C99.2948 635.463 98.8478 635.829 98.5691 636.314C98.2904 636.799 98.1996 637.369 98.3139 637.916L98.4601 637.975Z" fill="#E3707F"/>
<path d="M372.513 588.586C380.822 589.871 389.226 590.429 397.632 590.253C398.203 590.188 398.731 589.916 399.115 589.487C399.498 589.058 399.71 588.503 399.71 587.928C399.71 587.353 399.498 586.798 399.115 586.369C398.731 585.94 398.203 585.667 397.632 585.603C389.411 584.887 381.143 584.887 372.923 585.603C371.285 585.603 370.642 588.527 372.513 588.527V588.586Z" fill="#EDC483"/>
<path d="M95.7115 588.586C104.02 589.871 112.425 590.429 120.83 590.253C121.402 590.188 121.93 589.916 122.313 589.487C122.696 589.058 122.908 588.503 122.908 587.928C122.908 587.353 122.696 586.798 122.313 586.369C121.93 585.94 121.402 585.667 120.83 585.603C112.609 584.887 104.342 584.887 96.1209 585.603C94.4833 585.603 93.84 588.527 95.7115 588.527V588.586Z" fill="#EDC483"/>
<path d="M150.686 575.135L150.247 574.784C149.841 574.255 149.327 573.819 148.74 573.504C148.153 573.188 147.506 573.001 146.841 572.955C146.176 572.909 145.509 573.004 144.884 573.235C144.259 573.465 143.689 573.826 143.214 574.293C142.739 574.76 142.368 575.323 142.126 575.944C141.884 576.565 141.777 577.23 141.812 577.896C141.846 578.561 142.022 579.212 142.327 579.805C142.632 580.397 143.059 580.919 143.58 581.334L143.931 581.772C144.833 582.656 146.045 583.152 147.308 583.152C148.571 583.152 149.784 582.656 150.686 581.772C151.556 580.863 152.042 579.653 152.042 578.395C152.042 577.136 151.556 575.927 150.686 575.018V575.135Z" fill="#251A51"/>
<path d="M268.296 613.88C267.916 613.88 267.565 606.657 266.804 597.709C266.064 592.315 266.064 586.845 266.804 581.451C267.563 586.813 268.051 592.21 268.266 597.621C269.008 603.015 269.017 608.484 268.296 613.88Z" fill="#251A51"/>
<path d="M315.404 546.098L337.131 539.986L338.417 543.934L316.486 550.718L315.404 546.098Z" fill="#251A51"/>
<path d="M329.265 545.191C329.259 545.722 329.096 546.239 328.797 546.678C328.498 547.116 328.076 547.456 327.584 547.656C327.092 547.855 326.552 547.904 326.032 547.797C325.512 547.69 325.035 547.431 324.662 547.054C324.289 546.676 324.035 546.197 323.934 545.676C323.832 545.155 323.887 544.616 324.092 544.126C324.296 543.636 324.641 543.217 325.083 542.923C325.525 542.629 326.044 542.472 326.574 542.472C326.93 542.472 327.282 542.542 327.611 542.679C327.939 542.816 328.237 543.017 328.487 543.27C328.737 543.523 328.935 543.823 329.068 544.153C329.202 544.482 329.268 544.835 329.265 545.191Z" fill="#E4E1EA"/>
<path d="M241.335 485.655C241.013 485.86 240.282 485.509 239.61 484.719C238.937 483.93 238.616 483.023 238.996 482.789C239.376 482.555 240.048 482.965 240.75 483.725C241.452 484.485 241.715 485.421 241.335 485.655Z" fill="#251A51"/>
<path d="M221.568 488.433C221.217 488.638 220.515 488.433 219.842 487.527C219.17 486.62 218.848 485.801 219.228 485.567C219.609 485.333 220.281 485.743 220.983 486.503C221.685 487.263 221.948 488.199 221.568 488.433Z" fill="#251A51"/>
<path d="M201.011 397.813V441.091H172.091L171.155 457.525L154.166 440.155H90.4773L96.0917 394.597L201.011 397.813Z" fill="#EDC483"/>
<path d="M191.127 410.182C162.675 409.627 134.047 409.422 105.624 410.007C105.531 410.032 105.448 410.087 105.389 410.163C105.33 410.24 105.298 410.334 105.298 410.431C105.298 410.528 105.33 410.622 105.389 410.698C105.448 410.775 105.531 410.83 105.624 410.855C134.047 411.469 162.675 411.264 191.127 410.679C191.179 410.661 191.223 410.628 191.255 410.583C191.287 410.539 191.304 410.485 191.304 410.431C191.304 410.376 191.287 410.323 191.255 410.278C191.223 410.234 191.179 410.2 191.127 410.182Z" fill="#E4E1EA"/>
<path d="M191.127 418.516C162.675 417.931 134.047 417.727 105.624 418.341C105.516 418.341 105.412 418.384 105.335 418.461C105.258 418.537 105.215 418.642 105.215 418.75C105.215 418.859 105.258 418.963 105.335 419.04C105.412 419.116 105.516 419.159 105.624 419.159C134.047 419.774 162.675 419.569 191.127 418.984C191.158 418.984 191.188 418.978 191.217 418.966C191.245 418.954 191.271 418.937 191.292 418.916C191.314 418.894 191.331 418.868 191.343 418.84C191.355 418.811 191.361 418.781 191.361 418.75C191.361 418.719 191.355 418.689 191.343 418.661C191.331 418.632 191.314 418.606 191.292 418.585C191.271 418.563 191.245 418.546 191.217 418.534C191.188 418.522 191.158 418.516 191.127 418.516Z" fill="#E4E1EA"/>
<path d="M191.127 427.259C173.582 426.733 156.037 426.558 138.492 427.084C138.399 427.109 138.316 427.164 138.257 427.24C138.198 427.317 138.166 427.411 138.166 427.508C138.166 427.605 138.198 427.699 138.257 427.775C138.316 427.852 138.399 427.907 138.492 427.932C156.037 428.488 173.582 428.312 191.127 427.757C191.179 427.739 191.223 427.705 191.255 427.66C191.287 427.616 191.304 427.563 191.304 427.508C191.304 427.453 191.287 427.4 191.255 427.355C191.223 427.311 191.179 427.277 191.127 427.259Z" fill="#E4E1EA"/>
<path d="M489.921 624.2C486.761 627.239 485.553 631.968 488.572 635.611C490.012 637.295 492.032 638.376 494.231 638.641C496.43 638.905 498.649 638.334 500.447 637.04C509.021 630.439 500.085 618.242 490.847 620.758C490.494 620.86 490.19 621.085 489.99 621.392C489.79 621.699 489.707 622.068 489.755 622.431C489.804 622.794 489.982 623.128 490.256 623.371C490.53 623.615 490.883 623.751 491.249 623.757C494.001 623.578 496.733 624.337 498.998 625.91C500.078 626.894 500.733 628.259 500.823 629.717C500.913 631.175 500.432 632.611 499.481 633.72C494.429 639.919 485.694 630.801 490.987 625.266C491.092 625.119 491.142 624.939 491.127 624.759C491.112 624.579 491.033 624.41 490.905 624.282C490.777 624.154 490.608 624.075 490.428 624.06C490.248 624.045 490.068 624.095 489.921 624.2Z" fill="#8AA9FC"/>
<path d="M578.115 634.665C579.263 638.973 580.551 643.219 581.879 647.486C581.929 647.711 582.037 647.919 582.191 648.091C582.344 648.262 582.54 648.391 582.758 648.466C582.976 648.541 583.209 648.558 583.436 648.517C583.662 648.476 583.875 648.377 584.053 648.231C587.494 645.876 590.956 643.561 594.237 640.965C594.392 640.842 594.516 640.684 594.597 640.503C594.678 640.323 594.714 640.125 594.702 639.927C594.691 639.729 594.631 639.537 594.529 639.368C594.427 639.198 594.285 639.055 594.116 638.952C590.272 636.316 585.099 632.431 580.229 632.391C578.981 632.391 578.216 634.142 579.363 634.867C581.451 635.799 583.595 636.599 585.784 637.262C588.24 638.233 590.576 639.482 592.747 640.985C592.747 640.281 592.747 639.576 592.888 638.872C589.225 641.126 585.784 643.642 582.302 646.178L584.314 646.58C582.825 642.374 581.295 638.208 579.665 634.062C579.303 633.176 577.813 633.659 578.075 634.585L578.115 634.665Z" fill="#E3707F"/>
<path d="M602.388 657.469C607.639 655.037 612.669 652.155 617.422 648.855C617.74 648.605 617.953 648.245 618.018 647.845C618.082 647.446 617.994 647.037 617.771 646.7C617.548 646.362 617.206 646.121 616.813 646.025C616.42 645.928 616.006 645.983 615.651 646.178C610.658 648.886 605.91 652.024 601.462 655.557C600.576 656.241 601.22 658.032 602.388 657.569V657.469Z" fill="#EDC483"/>
<path d="M412.917 673.268C411.893 667.566 410.378 661.964 408.388 656.523C408.249 656.123 407.957 655.794 407.576 655.609C407.195 655.424 406.756 655.398 406.355 655.537C405.955 655.675 405.626 655.968 405.441 656.349C405.256 656.73 405.23 657.169 405.369 657.569C406.711 663.086 408.536 668.474 410.824 673.671C411.266 674.717 413.158 674.536 412.836 673.268H412.917Z" fill="#E8947E"/>
<path d="M429.099 623.616L428.817 623.354C428.2 622.773 427.38 622.455 426.532 622.468C425.685 622.48 424.875 622.823 424.276 623.422C423.676 624.022 423.334 624.831 423.321 625.679C423.308 626.527 423.626 627.346 424.208 627.963L424.469 628.245C424.765 628.583 425.127 628.857 425.533 629.05C425.939 629.242 426.38 629.349 426.829 629.365C427.278 629.38 427.726 629.302 428.144 629.137C428.562 628.972 428.941 628.723 429.259 628.405C429.577 628.088 429.826 627.708 429.991 627.29C430.156 626.872 430.233 626.425 430.218 625.976C430.203 625.527 430.096 625.086 429.903 624.68C429.711 624.274 429.437 623.912 429.099 623.616Z" fill="#251A51"/>
<path d="M566.16 767.964C566.16 767.964 512.08 780.523 490.363 758.806L498.132 706.94C500.507 692.026 499.098 663.346 510.51 653.162C511.821 651.987 513.283 650.992 514.857 650.203C522.908 646.339 537.117 644.165 550.803 644.165C567.408 644.165 584.515 656.664 588.883 672.705L570.89 714.789L566.16 767.964Z" fill="#E3707F"/>
<path d="M560.867 679.306C560.867 679.306 585.019 725.96 573.063 728.435C533.495 736.606 510.53 743.309 510.53 743.309L508.518 758.685C509.101 761 588.561 758.987 597.98 748.32C604.622 740.793 613.457 723.363 594.659 685.666L588.943 672.846L560.867 679.306Z" fill="#F6AEA6"/>
<path d="M515.381 655.154L455.001 678.501L453.11 646.862L440.188 641.871C440.188 641.871 421.471 692.67 444.898 702.13C468.325 711.589 494.691 694.079 494.691 694.079L515.381 655.154Z" fill="#F6AEA6"/>
<path d="M522.848 647.426C501.795 654.128 489.236 661.997 459.59 674.355L474.805 708.288L500.97 699.875L522.848 647.426Z" fill="#E3707F"/>
<path d="M557.244 672.745L572.54 708.288L607.057 701.989L583.791 661.957L556.278 672.745" fill="#E3707F"/>
<path d="M539.19 696.977C546.537 696.575 553.782 696.977 561.128 696.977C561.772 696.977 561.732 696.092 561.128 696.011C553.835 695.267 546.484 695.267 539.19 696.011C538.647 696.011 538.627 696.917 539.19 696.877V696.977Z" fill="#1A3066"/>
<path d="M572.198 655.738C547.382 657.992 564.349 694.602 570.729 705.692C570.804 705.818 570.925 705.908 571.067 705.944C571.208 705.98 571.358 705.958 571.484 705.883C571.609 705.809 571.7 705.687 571.735 705.545C571.771 705.404 571.749 705.254 571.675 705.129C565.355 693.938 548.429 659.864 572.278 656.342C572.621 656.342 572.56 655.718 572.278 655.738H572.198Z" fill="#1A3066"/>
<path d="M503.285 676.67C500.182 688.942 498.215 701.473 497.408 714.105C497.408 714.628 498.253 714.749 498.333 714.226C500.105 701.747 501.896 689.289 503.909 676.851C503.909 676.448 503.385 676.267 503.285 676.67Z" fill="#1A3066"/>
<path d="M561.41 609.044L562.537 593.325C564.527 592.56 566.131 591.037 566.999 589.09C567.867 587.143 567.927 584.931 567.166 582.94C566.232 581.004 564.702 579.418 562.8 578.415C560.899 577.412 558.726 577.044 556.6 577.365C559.277 575.554 559.076 571.186 556.882 568.811C554.464 566.604 551.277 565.433 548.006 565.551C544.775 565.676 541.54 565.568 538.325 565.229C535.507 564.706 532.75 563.417 529.892 563.76C527.034 564.102 524.337 567.322 525.867 569.798C521.841 569.194 517.333 568.63 513.69 570.623C510.047 572.615 508.216 578.231 511.335 580.948C510.365 581.576 509.676 582.557 509.413 583.683C509.151 584.808 509.335 585.992 509.927 586.986C510.573 587.953 511.442 588.751 512.462 589.311C513.481 589.872 514.62 590.179 515.783 590.206C518.11 590.258 520.429 589.925 522.647 589.22" fill="#251A51"/>
<path d="M560.726 598.8L559.901 609.688C559.901 609.688 569.179 610.936 566.543 619.389C563.906 627.843 557.546 624.139 557.546 624.139C557.546 624.139 555.976 645.795 533.776 638.932C516.125 633.478 517.212 610.614 519.446 591.112C519.657 589.325 520.234 587.602 521.142 586.049C522.049 584.496 523.267 583.148 524.72 582.088C526.173 581.028 527.83 580.279 529.585 579.889C531.341 579.499 533.158 579.476 534.924 579.821L548.247 582.417C551.977 583.137 555.311 585.206 557.612 588.228C559.914 591.249 561.022 595.013 560.726 598.8Z" fill="#F6AEA6"/>
<path d="M559.901 618.786L553.863 650.666C553.542 652.367 552.88 653.986 551.915 655.423C550.95 656.86 549.704 658.087 548.251 659.028C546.798 659.969 545.169 660.605 543.463 660.897C541.756 661.19 540.008 661.133 538.325 660.729C535.154 659.969 532.394 658.027 530.606 655.301C528.818 652.574 528.138 649.268 528.705 646.057L531.965 627.782L559.901 618.786Z" fill="#F6AEA6"/>
<path d="M535.366 619.148C535.366 619.148 535.366 619.591 534.823 619.913C534.279 620.235 533.052 619.571 532.81 618.484C532.514 617.307 532.425 616.088 532.549 614.881C532.549 613.512 532.71 612.104 532.79 610.634C532.828 606.974 533.232 603.326 533.998 599.746C534.279 603.393 534.225 607.058 533.837 610.695C533.716 612.164 533.615 613.573 533.515 614.941C533.352 616.042 533.352 617.161 533.515 618.262C533.676 619.148 534.32 619.591 534.742 619.53C535.165 619.47 535.286 619.087 535.366 619.148Z" fill="#251A51"/>
<path d="M528.161 636.779C529.186 637.169 530.182 637.634 531.14 638.167C533.503 639.254 536.064 639.843 538.664 639.898C541.264 639.954 543.848 639.474 546.255 638.489C547.239 638 548.254 637.576 549.294 637.221C549.294 637.221 548.429 638.228 546.557 639.234C544.102 640.456 541.387 641.064 538.645 641.004C535.903 640.945 533.217 640.22 530.818 638.892C529.775 638.413 528.863 637.687 528.161 636.779Z" fill="#251A51"/>
<path d="M532.508 623.616C532.629 623.515 533.112 623.998 534.038 624.401C535.225 624.945 536.567 625.045 537.822 624.683C539.053 624.253 540.084 623.386 540.72 622.247C541.243 621.382 541.364 620.718 541.525 620.718C541.686 620.718 541.807 621.462 541.404 622.569C541.129 623.297 540.694 623.954 540.13 624.49C539.566 625.026 538.888 625.428 538.147 625.666C537.406 625.904 536.621 625.972 535.851 625.864C535.08 625.757 534.343 625.477 533.696 625.045C532.71 624.381 532.408 623.696 532.508 623.616Z" fill="#251A51"/>
<path d="M560.605 620.516C560.605 620.355 561.149 620.275 561.752 619.893C562.078 619.702 562.316 619.391 562.417 619.027C562.517 618.625 562.417 618.262 562.115 618.162C562.031 618.105 561.933 618.075 561.833 618.075C561.732 618.075 561.634 618.105 561.551 618.162L560.666 617.699C561.491 615.968 562.235 614.78 562.457 614.881C562.678 614.982 562.296 616.33 561.591 618.101L560.686 617.638C560.857 617.411 561.087 617.234 561.352 617.129C561.616 617.024 561.905 616.993 562.185 617.041C562.466 617.089 562.728 617.213 562.943 617.4C563.158 617.587 563.317 617.83 563.403 618.101C563.526 618.474 563.526 618.876 563.403 619.249C563.299 619.536 563.13 619.796 562.911 620.009C562.691 620.221 562.425 620.381 562.135 620.476C561.149 620.939 560.605 620.617 560.605 620.516Z" fill="#251A51"/>
<path d="M543.518 599.021C543.518 598.76 544.564 598.156 546.034 598.538C547.503 598.921 548.207 600.028 548.046 600.189C547.885 600.35 546.98 599.846 545.832 599.565C544.685 599.283 543.618 599.323 543.518 599.021Z" fill="#251A51"/>
<path d="M524.337 595.982C524.216 595.741 525.364 594.976 526.974 595.137C528.584 595.298 529.59 596.204 529.409 596.425C529.228 596.646 528.201 596.264 526.873 596.163C525.545 596.063 524.458 596.264 524.337 595.982Z" fill="#251A51"/>
<path d="M559.901 609.749C553.722 603.711 551.85 593.648 550.22 585.174C547.313 587.242 543.943 588.563 540.405 589.023C536.868 589.483 533.271 589.067 529.932 587.811C527.853 590.253 525.425 592.376 522.727 594.11C522.377 594.399 521.971 594.61 521.534 594.732C521.097 594.853 520.639 594.881 520.191 594.815C519.144 594.493 518.682 593.305 518.44 592.239C517.561 588.855 517.687 585.288 518.802 581.974C519.362 580.326 520.264 578.815 521.451 577.542C522.638 576.269 524.081 575.262 525.686 574.588C529.264 573.511 533.089 573.567 536.634 574.749C542.065 576.155 547.274 578.309 552.112 581.149C556.842 583.926 561.39 587.589 563.403 592.702C565.415 597.814 565.415 607.756 560.565 610.332" fill="#251A51"/>
<path d="M545.188 607.897C544.906 607.897 544.725 607.112 544.785 606.186C544.846 605.261 545.148 604.536 545.43 604.556C545.711 604.576 545.913 605.341 545.832 606.267C545.752 607.193 545.49 607.917 545.188 607.897Z" fill="#251A51"/>
<path d="M527.376 605.623C527.094 605.623 526.913 604.838 526.974 603.912C527.034 602.986 527.336 602.262 527.618 602.282C527.9 602.302 528.081 603.067 528.02 603.993C527.96 604.918 527.678 605.643 527.376 605.623Z" fill="#251A51"/>
<path d="M439.604 642.937C439.604 642.937 442.281 626.494 445.481 626.675C448.681 626.856 455.082 626.675 455.082 626.675C455.082 626.675 455.625 611.037 457.396 613.533C459.167 616.028 459.731 637.081 452.868 647.164L439.604 642.937Z" fill="#F6AEA6"/>
<path d="M510.53 743.208C510.53 743.208 481.83 748.24 482.353 751.963C482.842 754.571 483.71 757.094 484.929 759.45L510.49 758.846L510.53 743.208Z" fill="#F6AEA6"/>
<path d="M541.686 760.356L541.465 756.371L482.353 752.768L462.529 699.714L397.641 703.297L419.76 760.638L541.686 760.356Z" fill="#6338A1"/>
<path opacity="0.41" d="M433.325 728.536C433.353 729.488 433.664 730.411 434.218 731.186C434.771 731.962 435.543 732.555 436.434 732.892C437.326 733.228 438.297 733.292 439.225 733.076C440.153 732.86 440.996 732.373 441.647 731.677C442.297 730.981 442.727 730.107 442.88 729.167C443.034 728.226 442.905 727.261 442.509 726.395C442.113 725.528 441.469 724.798 440.658 724.298C439.847 723.797 438.906 723.549 437.954 723.585C436.685 723.632 435.486 724.179 434.619 725.106C433.752 726.034 433.287 727.267 433.325 728.536Z" fill="white"/>
<path opacity="0.41" d="M431.493 728.656C431.567 729.988 432.034 731.268 432.835 732.334C433.636 733.4 434.735 734.205 435.993 734.646C437.251 735.088 438.612 735.146 439.904 734.814C441.196 734.482 442.36 733.774 443.249 732.781C444.138 731.787 444.713 730.552 444.901 729.232C445.088 727.912 444.88 726.566 444.303 725.364C443.725 724.162 442.804 723.158 441.656 722.48C440.508 721.801 439.185 721.478 437.853 721.552C436.968 721.598 436.101 721.819 435.302 722.201C434.502 722.584 433.787 723.121 433.196 723.781C432.604 724.442 432.15 725.212 431.858 726.049C431.565 726.886 431.442 727.772 431.493 728.656Z" fill="white"/>
<path d="M388 761.523L641.776 758.363L656.649 766.152C656.649 766.152 461.824 819.629 388 761.523Z" fill="#DDD2F3"/>
<path d="M586.508 573.803C585.743 575.292 588.259 613.814 588.259 613.814L607.238 612.244L605.024 622.308L614.283 611.862L632.86 609.709L631.732 572.354L586.508 573.803Z" fill="#DDD2F3"/>
<path d="M538.325 513.765C534.631 513.997 531.168 515.642 528.653 518.359C526.139 521.076 524.767 524.656 524.82 528.357C524.82 528.357 525.022 535.985 529.168 538.823C533.314 541.661 533.193 544.7 533.193 544.7H544.021C543.798 542.599 544.256 540.482 545.329 538.662C547.08 536.488 551.367 531.919 550.784 525.157C550.2 518.394 545.068 513.121 538.325 513.765Z" fill="#FFBB7D"/>
<path d="M532.891 548.121C536.796 547.94 540.74 548.383 544.645 548.121C545.188 548.121 545.39 547.216 544.766 547.095C540.831 546.491 536.826 546.491 532.891 547.095C532.307 547.095 532.267 548.061 532.891 548.021V548.121Z" fill="#6338A1"/>
<path d="M534.4 551.543C535.97 551.543 537.52 551.382 539.09 551.402C540.66 551.422 542.229 551.684 543.779 551.563C543.921 551.595 544.069 551.569 544.192 551.492C544.314 551.415 544.401 551.292 544.433 551.15C544.465 551.009 544.44 550.86 544.362 550.738C544.285 550.615 544.162 550.528 544.021 550.496C540.835 549.893 537.565 549.893 534.38 550.496C533.857 550.496 533.978 551.442 534.501 551.402L534.4 551.543Z" fill="#6338A1"/>
<path d="M535.688 554.079C537.057 554.179 538.466 554.562 539.714 554.521C539.85 554.51 539.979 554.452 540.079 554.358C540.178 554.264 540.243 554.138 540.262 554.002C540.28 553.866 540.252 553.728 540.182 553.61C540.112 553.492 540.003 553.402 539.875 553.354C538.466 553.055 537.018 552.987 535.588 553.153C535.465 553.153 535.347 553.202 535.26 553.288C535.174 553.375 535.125 553.493 535.125 553.616C535.125 553.739 535.174 553.856 535.26 553.943C535.347 554.03 535.465 554.079 535.588 554.079H535.688Z" fill="#6338A1"/>
<path d="M536.312 544.559C536.614 540.674 535.306 536.387 534.642 532.483L533.495 532.966C534.058 533.872 534.964 536.468 536.353 536.367C537.741 536.267 538.365 533.69 538.547 532.644H537.299C537.58 533.851 537.621 536.669 539.492 536.468C541.364 536.267 542.149 533.872 542.652 532.563L541.344 532.201C540.227 536.248 540.068 540.5 540.881 544.619C540.931 544.757 541.026 544.875 541.151 544.951C541.277 545.028 541.424 545.059 541.57 545.041C541.716 545.022 541.85 544.954 541.952 544.848C542.054 544.742 542.116 544.604 542.129 544.458C542.008 540.433 541.445 536.408 542.652 532.563C542.894 531.718 541.666 531.416 541.344 532.201C541.163 532.664 540.137 535.2 539.171 534.878C538.862 534.047 538.652 533.182 538.547 532.302C538.511 532.163 538.43 532.04 538.318 531.953C538.205 531.865 538.066 531.817 537.923 531.817C537.78 531.817 537.641 531.865 537.528 531.953C537.415 532.04 537.334 532.163 537.299 532.302C537.158 533.087 536.836 535.2 535.91 534.576C535.387 534.214 534.904 532.906 534.582 532.342C534.51 532.201 534.388 532.093 534.24 532.038C534.092 531.984 533.928 531.988 533.783 532.049C533.637 532.11 533.521 532.224 533.456 532.368C533.391 532.512 533.384 532.676 533.434 532.825C534.038 536.629 534.199 541.057 535.729 544.619C535.87 544.921 536.292 544.72 536.312 544.458V544.559Z" fill="#6338A1"/>
<path d="M497.73 539.708C503.546 537.857 509.544 536.267 515.22 534.033C515.662 533.851 515.501 533.167 515.018 533.288C509.101 534.757 503.285 536.951 497.488 538.823C496.925 539.004 497.166 539.889 497.73 539.708Z" fill="#FFBB7D"/>
<path d="M504.955 522.42C508.662 522.504 512.37 522.396 516.065 522.098C516.179 522.075 516.281 522.013 516.355 521.923C516.428 521.833 516.468 521.721 516.468 521.605C516.468 521.488 516.428 521.376 516.355 521.286C516.281 521.196 516.179 521.135 516.065 521.111C512.36 521.007 508.652 521.095 504.955 521.373C504.291 521.373 504.291 522.44 504.955 522.42Z" fill="#FFBB7D"/>
<path d="M522.526 516.06C518.4 512.477 514.475 508.009 509.786 505.151C509.634 505.034 509.441 504.981 509.251 505.006C509.06 505.03 508.887 505.13 508.769 505.282C508.652 505.434 508.6 505.627 508.624 505.817C508.649 506.008 508.748 506.181 508.9 506.298C512.503 510.324 517.555 513.423 521.781 516.804C522.304 517.227 523.049 516.523 522.526 516.06Z" fill="#FFBB7D"/>
<path d="M552.071 515.496C554.824 514.298 557.512 512.954 560.122 511.471C562.849 510.206 565.444 508.675 567.871 506.902C567.963 506.808 568.022 506.686 568.038 506.555C568.054 506.424 568.027 506.291 567.961 506.177C567.895 506.063 567.793 505.974 567.671 505.923C567.55 505.872 567.415 505.863 567.287 505.896C564.683 506.986 562.195 508.335 559.86 509.921C557.094 511.404 554.407 513.029 551.81 514.792C551.407 515.073 551.629 515.899 552.172 515.657L552.071 515.496Z" fill="#FFBB7D"/>
<path d="M555.634 522.721C556.843 523.072 558.117 523.135 559.354 522.904C560.591 522.674 561.757 522.156 562.759 521.393C563.322 520.87 562.758 520.085 562.074 520.206C560.987 520.387 560.062 520.97 558.894 521.212C557.727 521.453 556.721 521.474 555.634 521.695C555.07 521.695 555.171 522.56 555.634 522.721Z" fill="#FFBB7D"/>
<path d="M556.479 532.785C564.329 534.982 572.299 536.722 580.349 537.998C581.315 538.138 581.456 536.609 580.571 536.347C572.753 534.289 564.824 532.682 556.821 531.537C556.016 531.396 555.654 532.584 556.479 532.785Z" fill="#FFBB7D"/>
<path d="M445.703 669.243C445.741 667.546 446.146 665.878 446.89 664.352C448.903 661.333 451.539 662.098 454.196 663.426C455.391 664.21 456.753 664.7 458.173 664.857C459.593 665.015 461.03 664.835 462.367 664.332C466.936 662.319 469.09 655.436 464.722 652.256C463.293 651.189 461.904 652.94 462.106 654.269C462.367 656.12 463.293 658.173 461.683 659.763C459.57 661.897 457.074 660.105 454.941 659.139C453.844 658.604 452.649 658.3 451.43 658.248C450.211 658.196 448.994 658.397 447.856 658.837C443.831 660.488 440.812 666.023 444.052 669.746C444.175 669.869 444.327 669.957 444.494 670.002C444.662 670.046 444.838 670.046 445.005 670.001C445.172 669.957 445.325 669.868 445.447 669.746C445.57 669.623 445.658 669.471 445.703 669.303V669.243Z" fill="#6E3281"/>
<path d="M505.78 672.664C511.392 671.217 516.867 669.284 522.143 666.888C522.487 666.692 522.747 666.376 522.872 666C522.998 665.624 522.981 665.215 522.824 664.852C522.667 664.488 522.381 664.195 522.022 664.028C521.662 663.862 521.254 663.834 520.875 663.95C515.475 665.717 510.236 667.946 505.217 670.611C504.231 671.135 504.553 673.007 505.78 672.624V672.664Z" fill="#EDC483"/>
<path d="M478.569 678.4C479.737 682.708 481.005 686.954 482.333 691.221C482.384 691.446 482.491 691.654 482.645 691.826C482.798 691.997 482.994 692.126 483.212 692.201C483.43 692.276 483.663 692.293 483.89 692.252C484.117 692.211 484.329 692.112 484.507 691.966C487.968 689.611 491.43 687.296 494.711 684.7C494.866 684.576 494.988 684.416 495.067 684.235C495.147 684.053 495.181 683.855 495.167 683.657C495.153 683.459 495.092 683.268 494.988 683.099C494.884 682.93 494.74 682.789 494.57 682.687C490.746 680.051 485.553 676.166 480.683 676.126C479.435 676.126 478.67 677.857 479.837 678.582C481.918 679.536 484.064 680.343 486.258 680.997C488.71 681.976 491.045 683.225 493.222 684.72C493.222 684.016 493.222 683.311 493.362 682.708C489.699 684.962 486.238 687.478 482.756 690.014L484.768 690.416C483.299 686.21 481.77 682.043 480.119 677.897C480.029 677.715 479.876 677.571 479.688 677.492C479.5 677.413 479.29 677.405 479.097 677.469C478.904 677.532 478.74 677.664 478.635 677.839C478.531 678.013 478.493 678.22 478.529 678.421L478.569 678.4Z" fill="#EDE6F5"/>
<path d="M486.137 721.572C491.903 722.055 497.7 722.055 503.466 721.572C503.882 721.548 504.272 721.359 504.549 721.048C504.827 720.737 504.969 720.328 504.945 719.912C504.921 719.495 504.733 719.105 504.421 718.828C504.11 718.551 503.701 718.408 503.285 718.432C497.604 718.284 491.921 718.621 486.298 719.439C485.191 719.6 484.849 721.451 486.137 721.451V721.572Z" fill="#6E3281"/>
<path d="M596.893 591.031L600.919 604.898L606.514 603.811L605.97 601.014L607.54 600.068L610.438 603.026L619.898 601.175L621.126 597.572L618.429 596.968L621.911 595.801L621.146 591.917L618.147 592.198L622.172 591.071L621.226 586.261L611.626 588.133C611.626 588.133 612.23 581.411 609.392 579.237L607.238 579.66C607.622 580.756 607.846 581.901 607.903 583.061C607.361 585.53 606.69 587.969 605.89 590.367L602.951 591.735L602.247 589.723L596.893 591.031Z" fill="white"/>
<path d="M401.344 565.068L404.564 603.489H475.289L479.213 616.994L483.339 602.181L496.824 601.396L490.605 566.98L401.344 565.068Z" fill="#DDD2F3"/>
<path d="M410.622 579.277C434.942 578.062 459.316 578.479 483.581 580.525C484.446 580.525 484.466 579.237 483.581 579.177C459.314 577.151 434.937 576.794 410.622 578.11C409.877 578.11 409.857 579.317 410.622 579.277Z" fill="white"/>
<path d="M412.051 586.865C436.371 585.64 460.746 586.057 485.01 588.113C485.876 588.113 485.876 586.825 485.01 586.764C460.744 584.742 436.367 584.379 412.051 585.677C411.287 585.677 411.287 586.905 412.051 586.865Z" fill="white"/>
<path d="M412.172 593.205C428.535 593.768 444.716 592.561 461.079 594.03C461.945 594.03 461.945 592.722 461.079 592.681C444.736 591.554 428.535 592.259 412.172 592.017C412.033 592.043 411.907 592.116 411.817 592.225C411.727 592.333 411.678 592.47 411.678 592.611C411.678 592.752 411.727 592.889 411.817 592.997C411.907 593.106 412.033 593.179 412.172 593.205Z" fill="white"/>
<path opacity="0.2" d="M248.387 855.815C286.964 920.842 259.178 1020.74 194.169 1059.33C129.16 1097.92 30.685 1060.86 -7.89235 995.834C-17.0548 980.363 -23.0799 963.238 -25.6234 945.437C-28.1669 927.637 -27.179 909.509 -22.716 892.09C-18.253 874.672 -10.4024 858.303 0.387058 843.921C11.1765 829.538 24.6934 817.423 40.1655 808.268C104.912 769.68 209.809 790.831 248.387 855.815Z" fill="#DDD2F3"/>
<path opacity="0.47" d="M282.333 908.553C290.365 921.733 284.58 941.995 271.045 949.822C257.511 957.648 237.01 950.132 228.978 936.952C227.071 933.814 225.816 930.341 225.287 926.731C224.757 923.12 224.963 919.444 225.892 915.911C226.821 912.378 228.455 909.058 230.702 906.141C232.948 903.224 235.762 900.767 238.983 898.91C252.463 891.083 274.302 895.365 282.333 908.553Z" fill="#EDC483"/>
<path opacity="0.47" d="M418.377 120.076C421.932 125.984 419.371 135.067 413.381 138.575C407.39 142.084 398.316 138.714 394.761 132.806C393.916 131.4 393.361 129.843 393.127 128.224C392.892 126.606 392.984 124.958 393.395 123.374C393.806 121.79 394.529 120.302 395.524 118.994C396.518 117.687 397.764 116.585 399.189 115.753C405.156 112.244 414.822 114.163 418.377 120.076Z" fill="#E3707F"/>
<path opacity="0.47" d="M141.071 80.227C151.867 97.9519 144.091 125.201 125.897 135.726C107.703 146.251 80.1439 136.143 69.3475 118.418C66.7833 114.199 65.0971 109.528 64.3853 104.672C63.6734 99.817 63.9499 94.8726 65.1989 90.1215C66.448 85.3704 68.645 80.9058 71.6646 76.9829C74.6842 73.0599 78.4671 69.7554 82.7972 67.2582C100.917 56.733 130.274 62.4902 141.071 80.227Z" fill="#EDC483"/>
<path opacity="0.47" d="M97.6166 130.739C99.8042 134.375 98.2285 139.964 94.542 142.123C90.8555 144.282 85.2712 142.209 83.0836 138.573C82.564 137.707 82.2223 136.749 82.0781 135.753C81.9338 134.757 81.9899 133.743 82.2429 132.769C82.496 131.794 82.9412 130.878 83.5531 130.073C84.1649 129.269 84.9314 128.591 85.8088 128.079C89.4805 125.92 95.4289 127.101 97.6166 130.739Z" fill="#E3707F"/>
<path opacity="0.25" d="M1481.06 32.9546C1522.54 102.984 1492.67 210.57 1422.78 252.126C1352.89 293.683 1247.02 253.773 1205.54 183.744C1195.69 167.083 1189.21 148.641 1186.48 129.471C1183.75 110.301 1184.81 90.7789 1189.61 72.0204C1194.4 53.2619 1202.84 35.6345 1214.44 20.1456C1226.04 4.65658 1240.57 -8.39035 1257.21 -18.2498C1326.82 -59.8063 1439.59 -37.0279 1481.06 32.9546Z" fill="#DDD2F3"/>
<path opacity="0.47" d="M1249.89 123.395C1261.08 142.257 1253.02 171.252 1234.16 182.452C1215.3 193.652 1186.73 182.896 1175.54 164.035C1172.89 159.545 1171.14 154.574 1170.4 149.408C1169.66 144.241 1169.95 138.98 1171.24 133.924C1172.54 128.869 1174.81 124.118 1177.95 119.943C1181.08 115.769 1185 112.253 1189.48 109.595C1208.27 98.3953 1238.7 104.522 1249.89 123.395Z" fill="#EDC483"/>
</g>
<defs>
<linearGradient id="paint0_linear_2_2" x1="115.828" y1="521.417" x2="608.852" y2="521.417" gradientUnits="userSpaceOnUse">
<stop stop-color="#E58F7E"/>
<stop offset="0.14" stop-color="#E4857E"/>
<stop offset="0.7" stop-color="#E0637F"/>
<stop offset="1" stop-color="#DE567F"/>
</linearGradient>
<clipPath id="clip0_2_2">
<rect width="1440" height="1024" fill="white"/>
</clipPath>
</defs>
</svg>
