<svg width="25" height="25" viewBox="0 0 25 25" fill="none" xmlns="http://www.w3.org/2000/svg">
<g clip-path="url(#clip0_239_2444)">
<path d="M12.5 6.05103C12.3 6.05103 12.1378 5.88889 12.1378 5.68888V4.51377C12.1378 4.3137 12.3 4.15161 12.5 4.15161C12.7 4.15161 12.8622 4.31375 12.8622 4.51377V5.68883C12.8622 5.88889 12.7 6.05103 12.5 6.05103Z" fill="#E8F9FC"/>
<path d="M11.7676 9.57456C11.9606 9.39587 12.2179 9.286 12.5 9.286C12.7821 9.286 13.0394 9.39587 13.2324 9.57456C13.3027 9.63971 13.389 9.68181 13.4798 9.70004V6.35987C13.4798 5.89299 13.1013 5.51453 12.6344 5.51453H12.3655C11.8986 5.51453 11.5202 5.89299 11.5202 6.35987V9.70018C11.6097 9.68237 11.6957 9.64117 11.7676 9.57456Z" fill="#00D2FC"/>
<path d="M12.5 6.35987C12.5 6.02012 12.7009 5.728 12.9899 5.59365C12.8817 5.54335 12.7616 5.51453 12.6344 5.51453H12.3655C11.8986 5.51453 11.5202 5.89299 11.5202 6.35987V9.70018C11.6096 9.68242 11.6956 9.64121 11.7676 9.5746C11.9606 9.39592 12.2178 9.28604 12.5 9.28604V6.35987H12.5Z" fill="#00C2FB"/>
<path d="M3.16574 14.8236H21.8343V19.3789H3.16574V14.8236Z" fill="#FFB640"/>
<path d="M3.16574 14.8236H6.05769V19.3789H3.16574V14.8236Z" fill="#FFA90F"/>
<path d="M4.49432 12.3447H20.4057V15.0074H4.49432V12.3447Z" fill="#FEE17D"/>
<path d="M4.49432 12.3447H6.0577V15.0074H4.49432V12.3447Z" fill="#FFCE65"/>
<path d="M3.16574 19.2534V21.7094C3.16574 22.1096 3.49016 22.4823 3.89033 22.4823H21.1097C21.5099 22.4823 21.8343 22.1096 21.8343 21.7094V19.2534H3.16574Z" fill="#FEE17D"/>
<path d="M6.05769 19.2534H3.16574V21.7094C3.16574 22.1096 3.49016 22.4823 3.89033 22.4823H6.05769V19.2534Z" fill="#FFCE65"/>
<path d="M23.0563 22.434H1.94377C1.81285 22.434 1.70673 22.5401 1.70673 22.671C1.70673 23.7014 2.54199 24.5366 3.57235 24.5366H21.4278C22.4581 24.5366 23.2934 23.7014 23.2934 22.671C23.2934 22.5401 23.1872 22.434 23.0563 22.434Z" fill="#E8F9FC"/>
<path d="M5.52201 22.671C5.52201 22.5401 5.62813 22.434 5.75906 22.434H1.94376C1.81284 22.434 1.70667 22.5401 1.70667 22.671C1.70667 23.7014 2.54193 24.5366 3.57229 24.5366H7.38759C6.35727 24.5366 5.52201 23.7014 5.52201 22.671Z" fill="#D9E7EC"/>
<path d="M21.2787 9.19608C20.9498 9.15993 20.6461 9.27422 20.426 9.47803C20.2258 9.66337 19.9175 9.65512 19.7262 9.47803C19.5332 9.29934 19.2759 9.18947 18.9938 9.18947C18.7116 9.18947 18.4544 9.29934 18.2614 9.47803C18.0612 9.66337 17.7529 9.65517 17.5616 9.47803C17.3686 9.29934 17.1113 9.18947 16.8292 9.18947C16.5471 9.18947 16.2898 9.29934 16.0968 9.47803C15.8966 9.66337 15.5883 9.65517 15.397 9.47803C15.204 9.29934 14.9467 9.18947 14.6646 9.18947C14.3825 9.18947 14.1252 9.29934 13.9322 9.47803C13.732 9.66337 13.4237 9.65517 13.2324 9.47803C13.0394 9.29934 12.7822 9.18947 12.5 9.18947C12.2179 9.18947 11.9606 9.29934 11.7676 9.47803C11.5674 9.66337 11.2591 9.65517 11.0678 9.47803C10.8748 9.29934 10.6176 9.18947 10.3354 9.18947C10.0533 9.18947 9.79598 9.29934 9.60304 9.47803C9.40284 9.66337 9.09449 9.65517 8.9032 9.47803C8.71021 9.29934 8.45296 9.18947 8.17082 9.18947C7.88868 9.18947 7.63138 9.29934 7.43845 9.47803C7.23824 9.66337 6.9299 9.65517 6.7386 9.47803C6.54562 9.29934 6.28837 9.18947 6.00623 9.18947C5.72409 9.18947 5.46679 9.29934 5.27385 9.47803C5.0737 9.66337 4.76535 9.65517 4.57406 9.47803C4.35398 9.27422 4.05023 9.15993 3.72131 9.19608C3.16884 9.25683 2.75934 9.74029 2.75934 10.296V15.5989C2.75934 16.1601 3.17662 16.6469 3.73518 16.701C4.3777 16.7633 4.92393 16.2543 4.92393 15.6239V13.8637C4.92393 13.3025 5.34121 12.8158 5.89978 12.7616C6.54229 12.6993 7.08852 13.2083 7.08852 13.8388V15.5989C7.08852 16.1601 7.50581 16.6469 8.06437 16.701C8.70688 16.7633 9.25312 16.2543 9.25312 15.6239V13.8637C9.25312 13.3025 9.6704 12.8158 10.229 12.7616C10.8715 12.6993 11.4177 13.2083 11.4177 13.8388V15.5989C11.4177 16.1601 11.835 16.6469 12.3936 16.701C13.0361 16.7633 13.5823 16.2543 13.5823 15.6239V13.8637C13.5823 13.3025 13.9996 12.8158 14.5582 12.7616C15.2007 12.6993 15.7469 13.2083 15.7469 13.8388V15.5989C15.7469 16.1601 16.1642 16.6469 16.7227 16.701C17.3653 16.7633 17.9115 16.2543 17.9115 15.6239V13.8637C17.9115 13.3025 18.3288 12.8158 18.8873 12.7616C19.5299 12.6993 20.0761 13.2083 20.0761 13.8388V15.5989C20.0761 16.1601 20.4934 16.6469 21.0519 16.701C21.6944 16.7633 22.2407 16.2543 22.2407 15.6239V10.296C22.2407 9.74029 21.8312 9.25678 21.2787 9.19608Z" fill="#F27182"/>
<path d="M22.1856 12.7617C21.6271 12.8158 21.2098 13.3025 21.2098 13.8637V15.6239C21.2098 16.0322 20.9805 16.3893 20.6445 16.5735C20.7672 16.6415 20.9044 16.6867 21.0519 16.701C21.6944 16.7633 22.2406 16.2543 22.2406 15.6239V12.7578C22.2224 12.7587 22.2041 12.7599 22.1856 12.7617Z" fill="#ED5469"/>
<path d="M13.5273 12.7616C12.9687 12.8158 12.5515 13.3025 12.5515 13.8637V15.6239C12.5515 16.0321 12.3221 16.3893 11.9861 16.5735C12.1089 16.6415 12.2461 16.6867 12.3935 16.701C13.0361 16.7633 13.5823 16.2543 13.5823 15.6239V13.8637C13.5823 13.4507 13.8087 13.0787 14.1507 12.8891C13.9679 12.7889 13.7537 12.7397 13.5273 12.7616Z" fill="#ED5469"/>
<path d="M17.8565 12.7616C17.2979 12.8158 16.8807 13.3025 16.8807 13.8637V15.6239C16.8807 16.0321 16.6513 16.3893 16.3153 16.5735C16.4381 16.6415 16.5753 16.6867 16.7227 16.7009C17.3652 16.7632 17.9115 16.2542 17.9115 15.6238V13.8636C17.9115 13.4507 18.1379 13.0787 18.4799 12.8891C18.2971 12.7889 18.0829 12.7397 17.8565 12.7616Z" fill="#ED5469"/>
<path d="M9.19811 12.7616C8.63955 12.8158 8.22226 13.3025 8.22226 13.8637V15.6239C8.22226 16.0321 7.993 16.3893 7.65695 16.5735C7.77967 16.6415 7.91687 16.6867 8.06434 16.7009C8.70686 16.7632 9.25309 16.2542 9.25309 15.6238V13.8636C9.25309 13.4507 9.47954 13.0787 9.8215 12.8891C9.63873 12.7889 9.42447 12.7397 9.19811 12.7616Z" fill="#ED5469"/>
<path d="M6.05768 10.296C6.05768 9.90473 6.26117 9.55003 6.5741 9.35273C6.40887 9.24961 6.21443 9.18947 6.00626 9.18947C5.72412 9.18947 5.46687 9.29934 5.27388 9.47803C5.07373 9.66333 4.76538 9.65517 4.57409 9.47803C4.35401 9.27422 4.05026 9.15993 3.72134 9.19608C3.16887 9.25683 2.75937 9.74029 2.75937 10.296V15.5989C2.75937 16.1601 3.17665 16.6469 3.73521 16.701C4.37773 16.7633 4.92396 16.2543 4.92396 15.6239V13.8637C4.92396 13.3025 5.34124 12.8158 5.89981 12.7616C5.95324 12.7565 6.00588 12.7556 6.05773 12.758V10.296H6.05768Z" fill="#ED5469"/>
<path d="M13.8103 1.90498L12.7441 0.649578C12.6162 0.498969 12.3838 0.498969 12.2559 0.649578L11.1898 1.90503C10.2416 3.02155 11.0352 4.73656 12.5 4.73656C13.9649 4.73656 14.7585 3.02155 13.8103 1.90498Z" fill="#FEE17D"/>
<path d="M12.1696 1.90503L12.9899 0.939031L12.7441 0.649578C12.6162 0.498969 12.3838 0.498969 12.2559 0.649578L11.1898 1.90503C10.2416 3.02159 11.0352 4.73661 12.5 4.73661C12.6735 4.73661 12.8371 4.71186 12.9899 4.66761C11.8519 4.33817 11.3337 2.88941 12.1696 1.90503Z" fill="#FFCE65"/>
<path d="M13.2078 3.20699L12.6319 2.5288C12.5628 2.44743 12.4372 2.44743 12.3682 2.5288L11.7922 3.20699C11.28 3.81018 11.7087 4.73662 12.5 4.73662C13.2914 4.73662 13.72 3.81018 13.2078 3.20699Z" fill="#FFB640"/>
<path d="M12.772 3.20699L12.9899 2.9504L12.6319 2.5288C12.5628 2.44743 12.4373 2.44743 12.3682 2.5288L11.7922 3.20699C11.28 3.81018 11.7087 4.73662 12.5 4.73662C12.686 4.73662 12.8515 4.68501 12.9899 4.5989C12.5393 4.31859 12.3802 3.66843 12.772 3.20699Z" fill="#FFA90F"/>
</g>
<defs>
<clipPath id="clip0_239_2444">
<rect width="24" height="24" fill="white" transform="translate(0.5 0.536621)"/>
</clipPath>
</defs>
</svg>
