<svg width="16" height="16" viewBox="0 0 16 16" fill="none" xmlns="http://www.w3.org/2000/svg">
<path d="M10.5804 9.07973C10.5804 10.5026 9.4229 11.6601 8 11.6601C6.5771 11.6601 5.42003 10.5026 5.42003 9.07973C5.42003 7.65683 6.5771 6.49931 8 6.49931C9.4229 6.49931 10.5804 7.65727 10.5804 9.07973ZM16 5.41566V12.7447C16 13.7217 15.2078 14.5139 14.2308 14.5139H1.76923C0.792171 14.5139 0 13.7217 0 12.7447V5.41566C0 4.4386 0.792171 3.64643 1.76923 3.64643H3.94538V3.03428C3.94538 2.1793 4.63803 1.48621 5.49345 1.48621H10.5066C11.362 1.48621 12.0546 2.1793 12.0546 3.03428V3.64599H14.2308C15.2078 3.64643 16 4.4386 16 5.41566ZM11.9073 9.07973C11.9073 6.92525 10.1545 5.17239 8 5.17239C5.84597 5.17239 4.09311 6.92525 4.09311 9.07973C4.09311 11.2342 5.84597 12.9871 8 12.9871C10.1545 12.9871 11.9073 11.2342 11.9073 9.07973Z" fill="#29282B"/>
</svg>
