<svg width="25" height="22" viewBox="0 0 25 22" fill="none" xmlns="http://www.w3.org/2000/svg">
<path d="M22.2384 2.26161C19.8668 -0.109998 16.5046 -0.109998 14.1329 2.26161L12.5126 3.88197L12.0171 3.86932L11.5215 3.39907L10.3841 2.26161C8.01251 -0.109998 4.65029 -0.592895 2.27873 1.77871C-0.0928709 4.15032 -0.0928709 7.99544 2.27873 10.367L10.9793 19.0676L11.4934 19.5817C11.5195 19.6124 11.5466 19.6424 11.5756 19.6714L12.9958 21.0915C13.5893 21.685 14.5515 21.685 15.145 21.0915C15.3515 20.885 15.4862 20.6339 15.5489 20.3692C15.6078 20.1211 15.507 19.8612 15.4397 19.6149C15.3724 19.3685 15.3385 19.1358 15.145 18.9423L15.551 19.3483C16.1445 19.9418 17.1067 19.9418 17.7002 19.3483C17.9059 19.1426 18.0404 18.8925 18.1035 18.6289C18.1584 18.3995 18.0627 18.1598 18.0096 17.93C17.9477 17.6622 17.909 17.4078 17.7002 17.1991L18.1062 17.6051C18.6997 18.1986 19.6619 18.1986 20.2554 17.6051C20.4628 17.3977 20.5976 17.1454 20.6601 16.8795C20.7412 16.5345 20.6037 16.1665 20.4408 15.8445C20.3699 15.7044 20.2759 15.573 20.1588 15.4559L19.8495 15.0499C20.2693 15.4697 20.8735 15.5925 21.4012 15.4185C21.6196 15.3465 21.8249 15.2236 21.9986 15.0499C22.5921 14.4564 22.1092 13.4942 21.5157 12.9007L20.6102 11.9952L22.2384 10.367C24.61 7.99539 24.61 4.63321 22.2384 2.26161Z" fill="#FED2A4"/>
<path d="M9.90123 2.7445L11.5215 4.36486L11.5342 4.35221L20.1273 12.961L21.0328 13.8665C21.4526 14.2863 21.575 14.8904 21.401 15.4181C21.6194 15.3461 21.8248 15.2236 21.9986 15.0499C22.5921 14.4565 22.5921 13.4942 21.9986 12.9007L21.0931 11.9952L22.2384 10.367C24.61 7.99543 24.61 4.63321 22.2384 2.2616C19.8668 -0.110004 16.5046 -0.110004 14.133 2.2616L12.5127 3.39907L12.5 3.38641L12.4874 3.39907L10.867 1.7787C8.49542 -0.592901 4.6503 -0.592901 2.27874 1.7787C2.11547 1.94197 1.96384 2.11248 1.82303 2.28879C4.20719 0.384531 7.69289 0.536161 9.90123 2.7445Z" fill="#FFBD86"/>
<path d="M22.2384 10.367C24.61 7.99536 25.0929 4.63314 22.7213 2.26154C21.3509 0.891171 19.4886 -0.170285 17.7028 0.0430588C16.398 0.19889 15.1342 0.777449 14.1329 1.77864L12.5126 3.399L12.5 3.38635L21.0931 11.9952L22.2384 10.367Z" fill="#F6A96C"/>
<path d="M22.7213 1.77867C21.3509 0.408308 19.4886 -0.170203 17.7028 0.0430929C19.0075 0.198924 20.2713 0.777435 21.2726 1.77867C23.6442 4.15028 23.6442 7.9954 21.2726 10.367L20.3694 11.2702L21.0931 11.9952L22.7213 10.367C25.0929 7.99535 25.0929 4.15028 22.7213 1.77867Z" fill="#EA9B58"/>
<path d="M9.21662 7.70233C8.93374 7.41945 8.93374 6.96084 9.21662 6.67796L12.3843 3.5103C12.9778 2.91682 13.94 2.91682 14.5335 3.5103C15.1269 4.10378 15.1269 5.066 14.5335 5.65948L12.4906 7.70233C11.5866 8.60641 10.1207 8.60641 9.21662 7.70233Z" fill="#F6A96C"/>
<path d="M15.5772 19.3732L14.405 18.2011C14.2636 18.0596 14.0342 18.0596 13.8929 18.2011C13.7514 18.3425 13.7514 18.5718 13.8929 18.7132L15.5488 20.3691C15.6664 19.873 15.532 19.3293 15.145 18.9423L15.551 19.3483C15.5595 19.3569 15.5684 19.3648 15.5772 19.3732Z" fill="#FFBD86"/>
<path d="M14.1892 14.2026C14.0478 14.344 14.0478 14.5733 14.1892 14.7148L18.1033 18.6289C18.2175 18.1514 18.0978 17.6295 17.7442 17.2454L14.7014 14.2026C14.56 14.0611 14.3306 14.0611 14.1892 14.2026Z" fill="#FFBD86"/>
<path d="M16.7758 11.971C16.6343 11.8296 16.405 11.8296 16.2636 11.971C16.1221 12.1125 16.1221 12.3418 16.2636 12.4832L20.6598 16.8794C20.7761 16.3842 20.6415 15.842 20.2553 15.4558L19.8494 15.0499C19.8734 15.074 19.8983 15.0967 19.9235 15.1187L16.7758 11.971Z" fill="#FFBD86"/>
<path d="M3.47679 15.0499C2.88331 14.4564 2.88331 13.4942 3.47679 12.9007L5.30296 11.0745C5.89644 10.481 6.85866 10.481 7.45219 11.0745C8.04567 11.668 8.04567 12.6302 7.45219 13.2237L5.62602 15.0499C5.03254 15.6434 4.07032 15.6434 3.47679 15.0499Z" fill="#F6A96C"/>
<path d="M5.22004 17.6051C4.62656 17.0116 4.62656 16.0494 5.22004 15.4559L7.45219 13.2237C8.04567 12.6303 9.00789 12.6303 9.60142 13.2237C10.1949 13.8172 10.1949 14.7794 9.60142 15.373L7.36927 17.6051C6.77575 18.1986 5.81352 18.1986 5.22004 17.6051Z" fill="#F6A96C"/>
<path d="M7.77519 19.3483C7.18171 18.7548 7.18171 17.7926 7.77519 17.1991L9.60136 15.3729C10.1948 14.7794 11.1571 14.7794 11.7506 15.3729C12.3441 15.9664 12.3441 16.9286 11.7506 17.5221L9.92442 19.3483C9.33094 19.9418 8.36872 19.9418 7.77519 19.3483Z" fill="#F6A96C"/>
<path d="M10.3304 21.0916C9.73691 20.4981 9.73691 19.5359 10.3304 18.9424L11.7505 17.5222C12.344 16.9287 13.3062 16.9287 13.8997 17.5222C14.4932 18.1157 14.4932 19.0779 13.8997 19.6714L12.4796 21.0916C11.8861 21.6851 10.9239 21.6851 10.3304 21.0916Z" fill="#F6A96C"/>
</svg>
