<svg width="24" height="23" viewBox="0 0 24 23" fill="none" xmlns="http://www.w3.org/2000/svg">
<path d="M14.2658 21.1479C14.2003 21.1479 14.1338 21.1398 14.0683 21.1217C13.6656 21.0139 13.4279 20.5981 13.5367 20.1963L18.5716 1.56688C18.6804 1.16308 19.0952 0.921347 19.4981 1.03511C19.9008 1.14298 20.1385 1.55877 20.0297 1.96055L14.9949 20.59C14.9041 20.9263 14.599 21.1479 14.2658 21.1479Z" fill="#E3707F"/>
<path d="M4.69929 21.1479C4.63384 21.1479 4.56746 21.1398 4.502 21.1217C4.09912 21.0139 3.86144 20.5981 3.97023 20.1963L9.00526 1.56688C9.11386 1.16308 9.52984 0.921347 9.93161 1.03511C10.3345 1.14298 10.572 1.55877 10.4634 1.96055L5.42835 20.59C5.33764 20.9263 5.03266 21.1479 4.69929 21.1479Z" fill="#E3707F"/>
<path d="M20.3078 16.1128H1.67833C1.26143 16.1128 0.92308 15.7744 0.92308 15.3575C0.92308 14.9406 1.26143 14.6023 1.67833 14.6023H20.3078C20.7247 14.6023 21.063 14.9406 21.063 15.3575C21.063 15.7744 20.7247 16.1128 20.3078 16.1128Z" fill="#E3707F"/>
<path d="M22.3216 7.55358H3.69237C3.27547 7.55358 2.93713 7.21523 2.93713 6.79834C2.93713 6.38144 3.27547 6.04309 3.69237 6.04309H22.3216C22.7385 6.04309 23.0769 6.38144 23.0769 6.79834C23.0769 7.21523 22.7385 7.55358 22.3216 7.55358Z" fill="#E3707F"/>
</svg>
