<svg width="16" height="16" viewBox="0 0 16 17" fill="none" xmlns="http://www.w3.org/2000/svg">
<g clip-path="url(#clip0_239_2353)">
<path d="M15.9974 8.5C15.9974 4.08167 12.4163 0.5 7.99878 0.5C3.58118 0.5 0 4.08167 0 8.5C0 12.9183 3.58118 16.5 7.99878 16.5C12.4163 16.5 15.9974 12.9183 15.9974 8.5Z" fill="#F36986"/>
<path d="M10.7648 0.991455C12.8934 2.42896 14.293 4.86414 14.293 7.62622C14.293 12.0446 10.7118 15.6262 6.29419 15.6262C5.3219 15.6262 4.39014 15.4526 3.5282 15.1348C4.80444 15.9967 6.3429 16.5 7.99878 16.5C12.4163 16.5 15.9974 12.9183 15.9974 8.5C15.9974 5.0542 13.8192 2.11743 10.7648 0.991455Z" fill="#FC476E"/>
<path d="M11.6163 6.01291L11.6107 6.00729C10.6962 5.08884 9.20923 5.08871 8.29456 6.00705L8.01929 6.28329L7.72839 5.9913C6.81213 5.07126 5.32275 5.07126 4.40649 5.9913C3.48804 6.9133 3.48804 8.40451 4.40649 9.32651L7.59167 12.5245C7.82764 12.7613 8.21118 12.7613 8.44702 12.5245L11.6163 9.34262C12.5321 8.42307 12.5321 6.93234 11.6163 6.01291Z" fill="#FFD2E3"/>
<path d="M11.6163 6.01289L11.6107 6.00728C11.1061 5.50057 10.4272 5.27388 9.76636 5.32637C10.6221 6.24959 10.6027 7.69454 9.70728 8.59358L6.69177 11.621L7.59167 12.5245C7.82764 12.7614 8.21118 12.7614 8.44702 12.5245L11.6163 9.34261C12.5321 8.42305 12.5321 6.93233 11.6163 6.01289Z" fill="#FFBBD7"/>
</g>
<defs>
<clipPath id="clip0_239_2353">
<rect width="16" height="16" fill="white" transform="translate(0 0.5)"/>
</clipPath>
</defs>
</svg>
