<svg width="36" height="36" viewBox="0 0 36 36" fill="none" xmlns="http://www.w3.org/2000/svg">
<path d="M18 33.8203C26.7373 33.8203 33.8203 26.7373 33.8203 18C33.8203 9.26268 26.7373 2.17969 18 2.17969C9.26268 2.17969 2.17969 9.26268 2.17969 18C2.17969 26.7373 9.26268 33.8203 18 33.8203Z" fill="url(#paint0_linear_9_2070)"/>
<path d="M21.361 9.21094H14.6461C11.6508 9.21094 9.21802 11.6437 9.21802 14.6391V21.3539C9.21802 24.3492 11.6508 26.782 14.6461 26.782H21.361C24.3563 26.782 26.7891 24.3492 26.7891 21.3539V14.6391C26.7891 11.6437 24.3563 9.21094 21.361 9.21094ZM24.8274 21.3609C24.8274 23.2734 23.2735 24.8344 21.354 24.8344H14.6391C12.7266 24.8344 11.1657 23.2805 11.1657 21.3609V14.6461C11.1657 12.7336 12.7196 11.1727 14.6391 11.1727H21.354C23.2665 11.1727 24.8274 12.7266 24.8274 14.6461V21.3609Z" fill="white"/>
<path d="M18 13.5071C15.525 13.5071 13.5071 15.525 13.5071 18C13.5071 20.475 15.525 22.493 18 22.493C20.475 22.493 22.493 20.475 22.493 18C22.493 15.525 20.475 13.5071 18 13.5071ZM18 20.7282C16.4954 20.7282 15.2719 19.5047 15.2719 18C15.2719 16.4954 16.4954 15.2719 18 15.2719C19.5047 15.2719 20.7282 16.4954 20.7282 18C20.7282 19.5047 19.5047 20.7282 18 20.7282Z" fill="white"/>
<path d="M22.8352 13.9996C23.2491 13.9325 23.5303 13.5425 23.4632 13.1286C23.3961 12.7146 23.0061 12.4335 22.5922 12.5006C22.1782 12.5677 21.897 12.9576 21.9642 13.3716C22.0313 13.7855 22.4212 14.0667 22.8352 13.9996Z" fill="white"/>
<defs>
<linearGradient id="paint0_linear_9_2070" x1="5.95399" y1="30.046" x2="28.4364" y2="7.56359" gradientUnits="userSpaceOnUse">
<stop stop-color="#FEE411"/>
<stop offset="0.0518459" stop-color="#FEDB16"/>
<stop offset="0.1381" stop-color="#FEC125"/>
<stop offset="0.2481" stop-color="#FE983D"/>
<stop offset="0.3762" stop-color="#FE5F5E"/>
<stop offset="0.5" stop-color="#FE2181"/>
<stop offset="1" stop-color="#9000DC"/>
</linearGradient>
</defs>
</svg>
