<svg width="36" height="36" viewBox="0 0 36 36" fill="none" xmlns="http://www.w3.org/2000/svg">
<path d="M18 34.615C27.1765 34.615 34.6154 27.1761 34.6154 17.9997C34.6154 8.82324 27.1765 1.38428 18 1.38428C8.82361 1.38428 1.38464 8.82324 1.38464 17.9997C1.38464 27.1761 8.82361 34.615 18 34.615Z" fill="#007AB9"/>
<path d="M27.9275 19.3367V26.1869H23.956V19.7958C23.956 18.1911 23.3826 17.0952 21.9446 17.0952C20.8472 17.0952 20.1953 17.833 19.9074 18.5474C19.8029 18.8027 19.7759 19.1572 19.7759 19.5153V26.1866H15.8041C15.8041 26.1866 15.8574 15.3622 15.8041 14.2417H19.7762V15.9344C19.7682 15.9477 19.757 15.9608 19.7498 15.9735H19.7762V15.9344C20.304 15.1223 21.2453 13.9612 23.3556 13.9612C25.9685 13.9612 27.9275 15.6684 27.9275 19.3367ZM11.6492 8.48389C10.2906 8.48389 9.40173 9.3757 9.40173 10.5474C9.40173 11.6942 10.2648 12.6118 11.5971 12.6118H11.6228C13.0081 12.6118 13.8694 11.6942 13.8694 10.5474C13.843 9.3757 13.0081 8.48389 11.6492 8.48389ZM9.63779 26.1869H13.6082V14.2417H9.63779V26.1869Z" fill="#F1F2F2"/>
</svg>
